<?xml version="1.0" standalone="no"?>
<!DOCTYPE svg PUBLIC "-//W3C//DTD SVG 1.1//EN" "http://www.w3.org/Graphics/SVG/1.1/DTD/svg11.dtd" >
<svg xmlns="http://www.w3.org/2000/svg">
<metadata></metadata>
<defs>
<font id="avantgardebold" horiz-adv-x="1136" >
<font-face units-per-em="2048" ascent="1638" descent="-410" />
<missing-glyph horiz-adv-x="575" />
<glyph horiz-adv-x="2048" />
<glyph horiz-adv-x="2048" />
<glyph unicode="&#xd;" horiz-adv-x="0" />
<glyph unicode=" "  horiz-adv-x="575" />
<glyph unicode="&#x09;" horiz-adv-x="575" />
<glyph unicode="&#xa0;" horiz-adv-x="575" />
<glyph unicode="!" horiz-adv-x="576" d="M144 0v256h256v-256h-256zM144 384v1120h256v-1120h-256z" />
<glyph unicode="&#x22;" horiz-adv-x="736" d="M128 1040v464h160v-464h-160zM400 1040v464h160v-464h-160z" />
<glyph unicode="#" d="M96 480v192h240l16 192h-208v192h240l48 448h176l-48 -448h176l48 448h176l-48 -448h176v-192h-208l-16 -192h176v-192h-208l-48 -480h-176l48 480h-176l-64 -480h-176l64 480h-208zM512 672h176l16 192h-176z" />
<glyph unicode="$" d="M126 461q0 11 2 35h272q6 -69 65 -114.5t130 -45.5q62 0 102.5 36.5t40.5 108.5q0 9 -2 31q-10 65 -108 110.5t-203.5 92t-177 131.5t-71.5 242q0 115 53.5 234t218.5 150v256h240v-256q77 -23 139 -82t97.5 -132t35.5 -138h-256q-14 65 -52 97.5t-84 32.5 q-55 0 -95.5 -43t-40.5 -119q10 -71 109 -115t208.5 -89.5t184 -136.5t74.5 -261v-22q0 -99 -62 -199t-242 -185v-256h-256v256q-17 9 -65 34t-106.5 70.5t-104.5 117t-46 159.5z" />
<glyph unicode="%" horiz-adv-x="1744" d="M32 1152q0 65 32.5 151t116 156t219.5 77q138 -15 220 -79t115 -137t33 -120q5 -27 5 -50q0 -59 -25.5 -123t-72 -116.5t-117 -86.5t-158.5 -40q-147 0 -257.5 94.5t-110.5 273.5zM256 1184q0 -55 13 -91t44 -52.5t87 -16.5q128 0 128 160q0 32 -19.5 58.5t-51 42 t-64.5 15.5q-43 0 -80 -28.5t-57 -87.5zM448 0l608 1504h208l-624 -1504h-192zM959 312q0 16 1 24q0 42 32.5 126t111.5 155t208 71q159 0 244 -82t124 -238q9 -31 9 -65q0 -75 -42.5 -151t-118 -126.5t-168.5 -57.5q-10 -1 -30 -1q-88 0 -173.5 40.5t-141.5 120t-56 184.5z M1198 328q0 -8 2 -24q7 -45 48.5 -74t88.5 -29q42 0 75.5 26t43.5 77q3 15 3 30q0 50 -31 82t-84 32q-12 3 -25 3q-47 0 -84 -32.5t-37 -90.5z" />
<glyph unicode="&#x26;" horiz-adv-x="1376" d="M64 416q0 76 36 172.5t103 179t149 112.5q-64 98 -93 163.5t-29 145.5q0 71 26 155q36 70 94.5 119t128 74t143.5 25q99 0 185.5 -44.5t141.5 -133t59 -216.5q0 -87 -22.5 -144t-68 -102t-149.5 -122l128 -160l128 256h304l-256 -464l272 -272l-192 -176l-208 192 q-24 -24 -65 -65.5t-85.5 -71.5t-108 -50.5t-141.5 -20.5q-47 0 -127 31t-161 89t-136.5 142.5t-55.5 185.5zM336 416q29 -172 192 -192q39 0 92.5 27.5t92.5 69t39 79.5l-224 256q-31 -8 -77.5 -45.5t-80.5 -90.5t-34 -104zM480 1168q27 -133 112 -176q151 87 151 168 q0 40 -39 72q-49 40 -106 40q-49 0 -83.5 -29.5t-34.5 -74.5z" />
<glyph unicode="'" horiz-adv-x="576" d="M160 928v144q49 12 71.5 21t39.5 40.5t17 98.5h-128v272h272q-2 -36 -2 -57q1 -36 2 -79q1 -44 1 -72q0 -158 -54.5 -255.5t-218.5 -112.5z" />
<glyph unicode="(" horiz-adv-x="768" d="M168 654q0 146 35 281.5t104 252.5t174 203.5t239 128.5v-320q-84 -32 -147 -118.5t-96.5 -205.5t-33.5 -250q0 -123 30.5 -237.5t92.5 -207.5t154 -149v-304q-133 54 -237.5 151t-173.5 221t-105 267t-36 287z" />
<glyph unicode=")" horiz-adv-x="768" d="M64 32q105 61 174.5 154t103.5 207.5t34 232.5q0 96 -20.5 187t-60 169t-99 140t-132.5 94v304q141 -54 227 -129t173 -191q176 -249 176 -550q0 -116 -25 -229t-60 -199.5t-76 -157.5t-63 -96q-87 -100 -173 -156t-179 -68v288z" />
<glyph unicode="*" horiz-adv-x="896" d="M144 1168v144h192l-80 176l128 64l80 -176l80 176l128 -64l-112 -176h208v-144h-208l112 -160l-128 -80l-80 192l-96 -192l-128 80l112 160h-208z" />
<glyph unicode="+" horiz-adv-x="1216" d="M96 544v240h400v400h240v-400h384v-240h-384v-416h-240v416h-400z" />
<glyph unicode="," horiz-adv-x="576" d="M144 0v288h272q0 -41 4 -122t4 -119q0 -97 -21.5 -165.5t-83.5 -114t-175 -55.5v144q23 6 49 12.5t41.5 15t27.5 29.5t12 56q0 9 -2 31h-128z" />
<glyph unicode="-" horiz-adv-x="848" d="M144 544v240h560v-240h-560z" />
<glyph unicode="." horiz-adv-x="576" d="M144 0v272h288v-272h-288z" />
<glyph unicode="/" horiz-adv-x="928" d="M64 -240l656 1776h192l-656 -1776h-192z" />
<glyph unicode="0" d="M64 464v608q0 146 66 251.5t180 159t250 53.5q117 0 211.5 -37t162.5 -103.5t103 -150t35 -173.5v-576q0 -107 -26 -200.5t-86 -170t-155.5 -122t-228.5 -51.5q-99 0 -190 31t-164.5 95t-115.5 161.5t-42 224.5zM336 512q0 -135 65.5 -203.5t158.5 -68.5t141.5 33.5 t65.5 96.5t17 158v480q0 127 -46 199.5t-178 72.5q-121 0 -172.5 -81.5t-51.5 -206.5v-480z" />
<glyph unicode="1" d="M304 1248v256h464v-1504h-256v1248h-208z" />
<glyph unicode="2" d="M64 992q13 144 57 246.5t112.5 167t149.5 94.5t170 30q82 0 158.5 -23.5t136.5 -66.5q103 -70 158.5 -175.5t55.5 -223.5q0 -96 -38 -187.5t-112 -165.5l-448 -432h576v-256h-960v256l592 560q57 51 90.5 111t33.5 119q0 107 -108 186q-67 44 -134 44q-61 0 -111.5 -33.5 t-80 -89.5t-29.5 -119q0 -21 3 -42h-272z" />
<glyph unicode="3" d="M48 464h256q33 -130 100 -185t140 -55q42 0 96 27t95.5 79t48.5 118q1 10 1 30q0 144 -90.5 193t-246.5 49v256q24 -2 36 -2q83 0 138 42.5t55 109.5q0 23 -5 42q-10 41 -45.5 64t-80.5 23q-32 0 -65 -13.5t-55 -41t-26 -64.5h-256q4 110 65 202.5t156 145.5t198 53 q111 0 208 -67t157 -206q23 -50 23 -112q0 -86 -43 -168.5t-108 -119.5q72 -18 132.5 -64.5t100 -131t39.5 -204.5q0 -91 -46 -206.5t-161.5 -202.5t-304.5 -87q-86 0 -202 42t-209.5 153.5t-100.5 300.5z" />
<glyph unicode="4" d="M0 240v240l688 1024h224v-1008h160v-256h-160v-240h-272v240h-640zM288 496h352v544z" />
<glyph unicode="5" d="M16 448h272q15 -118 81 -165.5t151 -47.5q68 0 120 21q68 30 107 100.5t39 150.5q0 90 -50 149q-78 88 -199 88q-63 0 -121 -27t-96 -77l-224 80l128 784h688v-256h-480l-48 -272q85 38 181 38q124 0 237.5 -61t183.5 -172.5t70 -252.5q0 -123 -38.5 -229.5t-105 -183.5 t-154 -120t-182.5 -43q-108 0 -212.5 29t-204 138t-143.5 329z" />
<glyph unicode="6" d="M31 489q0 6 0.5 10.5t0.5 12.5q0 92 26 169.5t71 150.5t159 240l304 432h304l-336 -512q11 1 33 1q100 0 190.5 -32t159.5 -92t107.5 -144t38.5 -187q0 -8 -0.5 -13.5t-0.5 -12.5q-8 -153 -74 -277.5t-186.5 -195.5t-283.5 -71q-128 0 -247 77.5t-192.5 198.5t-73.5 245z M318 502q0 -55 17.5 -102t54.5 -82.5t83.5 -52t98.5 -16.5q95 0 166.5 53t77.5 146q1 10 1 29q0 81 -35 144t-92 97.5t-122 34.5q-16 0 -24 -1q-61 0 -113.5 -33.5t-82.5 -91.5t-30 -125z" />
<glyph unicode="7" d="M128 1248v256h880v-288l-528 -1216h-288l544 1248h-608z" />
<glyph unicode="8" d="M68 473q0 116 53 211t167 148q-42 33 -84 110t-42 174q0 165 142 324q40 46 111.5 73t155.5 27q83 0 158.5 -28t134.5 -88q34 -34 62 -85.5t43.5 -112t15.5 -119.5q0 -82 -29.5 -153t-91.5 -122q81 -40 146 -132t65 -221q0 -150 -99 -319q-55 -91 -168 -145.5t-244 -54.5 q-81 0 -160.5 24.5t-147 76.5t-112.5 131q-36 62 -56 136t-20 145zM342 458q0 -37 10 -74q23 -81 83 -124.5t133 -43.5q72 0 132.5 44t83.5 124q9 36 9 68q0 101 -72.5 168.5t-160.5 67.5q-55 0 -106 -30t-81.5 -82t-30.5 -118zM416 1136q0 -77 40 -126.5t120 -49.5 q79 0 119.5 47t40.5 113q0 61 -44.5 102.5t-115.5 41.5q-69 0 -114.5 -39t-45.5 -89z" />
<glyph unicode="9" d="M32 960q6 129 40.5 231t101 176.5t167 113.5t235.5 39q120 0 237.5 -62.5t191.5 -177.5t74 -267q0 -106 -41.5 -225.5t-125.5 -243.5l-368 -544h-336l336 480q-164 0 -280.5 76t-174 188.5t-57.5 215.5zM320 992q0 -78 33 -135t87 -86t116 -29q99 0 171.5 70.5 t72.5 195.5q0 113 -69.5 175.5t-166.5 62.5q-64 0 -119.5 -29t-90 -87.5t-34.5 -137.5z" />
<glyph unicode=":" horiz-adv-x="576" d="M128 0v272h288v-272h-288zM128 752v272h288v-272h-288z" />
<glyph unicode=";" horiz-adv-x="576" d="M144 0v288h288q0 -42 1 -77v-87q0 -147 -18 -228.5t-81 -129.5t-190 -54v144q8 -2 24 -2q46 0 76 32.5t30 85.5q0 18 -2 28h-128zM160 752v288h272v-288h-272z" />
<glyph unicode="&#x3c;" horiz-adv-x="1216" d="M112 560v208l1024 464v-240l-720 -336l736 -320v-240z" />
<glyph unicode="=" horiz-adv-x="1216" d="M112 336v240h1024v-240h-1024zM112 736v240h1024v-240h-1024z" />
<glyph unicode="&#x3e;" horiz-adv-x="1216" d="M64 960v240l1040 -464v-224l-1024 -432v224l736 320z" />
<glyph unicode="?" d="M61 1091q0 81 43 175.5t159 166t313 71.5q96 0 174.5 -35.5t134 -98t83.5 -137.5t28 -151q0 -68 -20 -122q-25 -73 -59.5 -113t-115.5 -118.5t-114.5 -140.5t-33.5 -154q0 -23 3 -50h-272q3 16 3 40v36q-1 15 -1 33q0 83 29 160t113 147q184 149 184 276q0 73 -59.5 118 t-137.5 45q-75 0 -127 -45.5t-52 -137.5h-272q-3 13 -3 35zM400 0v256h256v-256h-256z" />
<glyph unicode="@" horiz-adv-x="1504" d="M-1 757q0 87 17 171q42 177 159.5 312.5t279.5 208.5t333 73q162 0 300 -66q118 -56 213 -148.5t148.5 -209t53.5 -243.5q0 -116 -47 -231q-71 -167 -191.5 -247t-241.5 -80q-75 0 -125 29t-50 74q-31 -45 -87 -71.5t-116 -26.5q-97 0 -182 58t-127 168q-27 74 -27 154 q0 102 42.5 192t115.5 155.5t157 90.5q39 12 90 12q89 0 163 -36t99 -104l32 112h192l-112 -640q24 -6 45 -6q68 0 117 50.5t74.5 135t25.5 188.5q0 48 -6 96q-17 129 -92 230.5t-197 159.5t-271 58q-200 0 -349.5 -95.5t-242.5 -304.5q-47 -100 -47 -222q0 -108 41 -218.5 t127 -204t215 -155.5q116 -49 252 -49q126 0 242 41.5t194 119.5h192q-267 -315 -617 -315q-184 0 -375 91q-120 64 -214 166.5t-148.5 237t-54.5 289.5zM570 707q0 -62 38 -131q46 -55 111 -55q74 0 129 55q22 22 50 70t28 103q0 62 -46 115q-42 51 -108 51 q-38 0 -76.5 -17t-55.5 -34q-70 -70 -70 -157z" />
<glyph unicode="A" horiz-adv-x="1504" d="M16 0l624 1504h208l640 -1504h-304l-160 384h-544l-160 -384h-304zM592 656h320l-160 432z" />
<glyph unicode="B" horiz-adv-x="1184" d="M144 0v1504h384q120 0 216 -33t163.5 -91t100 -125t32.5 -135q0 -123 -39.5 -185.5t-120.5 -102.5q129 -59 192.5 -161.5t63.5 -238.5q0 -74 -34.5 -150.5t-104.5 -140.5t-176.5 -102.5t-244.5 -38.5h-432zM432 288q72 -4 102 -4q150 0 232 41.5t82 138.5t-82 138.5 t-232 41.5q-30 0 -102 -4v-352zM432 928q100 0 157.5 5.5t94 23t52.5 52.5t16 95q0 76 -86.5 102t-233.5 26v-304z" />
<glyph unicode="C" horiz-adv-x="1584" d="M48 784q6 95 58.5 221.5t149 244.5t237 194t316.5 76h23q133 0 278.5 -57t262.5 -163.5t163 -243.5h-320q-88 96 -185.5 142t-199.5 46q-128 0 -243.5 -70.5t-183.5 -184.5t-68 -237q0 -140 81 -258.5t207.5 -186.5t254.5 -68q95 0 173.5 39t131.5 122h336 q-55 -150 -175.5 -248.5t-262 -142t-256.5 -43.5q-16 0 -42 2q-151 12 -286 73t-234.5 163.5t-157.5 250.5t-58 329z" />
<glyph unicode="D" horiz-adv-x="1424" d="M128 0v1504h256q175 0 325.5 -22t291.5 -93.5t233.5 -211.5t109.5 -361q1 -16 1 -51q0 -129 -35 -257.5t-125 -244.5t-254 -189.5t-403 -73.5h-400zM416 288q76 -15 151 -15q214 0 351.5 119t137.5 344q0 272 -149.5 384t-490.5 112v-944z" />
<glyph unicode="E" horiz-adv-x="1056" d="M128 0v1504h800v-272h-528v-368h512v-256h-512v-352h528v-256h-800z" />
<glyph unicode="F" horiz-adv-x="976" d="M128 0v1504h752v-272h-464v-336h448v-272h-448v-624h-288z" />
<glyph unicode="G" horiz-adv-x="1712" d="M48 768q0 151 63.5 286t175 239t249 162.5t280.5 64.5q111 0 205 -12t196 -56.5t198 -141t169 -254.5h-352q-60 91 -162.5 139t-220.5 48q-125 0 -240 -54.5t-186 -163t-71 -257.5q4 -159 79.5 -277.5t193 -179t248.5 -60.5q83 0 165 27t148 82t110 136h-624v256h976 q0 -6 0.5 -12t0.5 -15q0 -143 -58 -277.5t-164 -240.5t-252 -169.5t-311 -69.5h-27q-162 0 -307 65.5t-254 180t-168.5 258.5t-59.5 296z" />
<glyph unicode="H" horiz-adv-x="1376" d="M144 0v1504h272v-592h544v592h272v-1504h-272v640h-544v-640h-272z" />
<glyph unicode="I" horiz-adv-x="576" d="M128 0v1504h288v-1504h-288z" />
<glyph unicode="J" horiz-adv-x="976" d="M0 352h288q6 -59 44 -95t87 -36q57 0 99 50.5t42 144.5v1088h272v-1152q0 -179 -93.5 -275.5t-274.5 -108.5q-11 -1 -33 -1q-82 0 -155.5 27.5t-132 79.5t-95 123t-48.5 155z" />
<glyph unicode="K" horiz-adv-x="1264" d="M144 0v1504h272v-624l480 624h336l-576 -736l560 -768h-352l-448 640v-640h-272z" />
<glyph unicode="L" horiz-adv-x="896" d="M144 0v1504h272v-1232h448v-272h-720z" />
<glyph unicode="M" horiz-adv-x="1824" d="M128 0v1504h384l416 -1152l416 1152h368v-1504h-288v1088l-384 -1088h-224l-400 1088v-1088h-288z" />
<glyph unicode="N" horiz-adv-x="1504" d="M128 0v1504h304l640 -1104v1104h272v-1504h-304l-624 1088v-1088h-288z" />
<glyph unicode="O" horiz-adv-x="1712" d="M64 720q6 216 83 372.5t195 249.5t255.5 135.5t266.5 42.5q175 0 322.5 -70t252.5 -184.5t159.5 -245t54.5 -250.5q0 -31 -5 -66q-14 -123 -60.5 -248.5t-139.5 -236.5t-246.5 -181t-369.5 -70q-198 0 -346.5 79t-239.5 197t-136.5 247.5t-45.5 228.5zM352 720 q7 -163 82.5 -271.5t183.5 -158.5t214 -50q99 0 192 42.5t166 117.5t113.5 166t40.5 186q0 122 -57.5 233.5t-167 183.5t-255.5 79q-92 0 -178.5 -26t-159.5 -85.5t-120.5 -164t-53.5 -252.5z" />
<glyph unicode="P" d="M128 0v1504h416q159 0 267 -45t168.5 -117.5t84.5 -154t24 -163.5q0 -130 -56.5 -235.5t-162 -167t-245.5 -61.5h-224v-560h-272zM416 816q33 -5 73 -5q78 0 152 18.5t124.5 66.5t50.5 128q-7 94 -68.5 140.5t-140 57t-191.5 10.5v-416z" />
<glyph unicode="Q" horiz-adv-x="1712" d="M48 755q0 143 48.5 278t145.5 245t242 178t332 80q207 -3 369 -75.5t268.5 -189.5t159.5 -260.5t53 -292.5q0 -137 -44.5 -256.5t-133.5 -205.5q23 -23 76 -35.5t116 -12.5v-256q-116 0 -223.5 27t-160.5 101q-50 -31 -98 -52t-99 -33.5t-122.5 -19.5t-160.5 -7 q-182 9 -328 77t-244 180.5t-147 248t-49 281.5zM350 733q0 -13 2 -45q97 13 192 13q133 0 252.5 -30.5t229.5 -93.5t222 -161q36 16 63 58.5t42.5 107t15.5 128.5q0 113 -43 222t-138 195t-244 121q-25 5 -54 5q-104 0 -230.5 -52t-218 -169t-91.5 -299zM448 464 q7 -34 68 -87.5t153.5 -93.5t187.5 -40q97 0 183 45q-93 75 -206 128t-292 53q-39 0 -94 -5z" />
<glyph unicode="R" horiz-adv-x="1184" d="M128 0v1504h400q178 0 309.5 -39t215 -156t83.5 -333q0 -87 -39 -177.5t-128 -156.5t-233 -82l400 -560h-336l-400 576v-576h-272zM400 784h78q28 -1 62 -1q110 0 177.5 16t107 68.5t39.5 156.5q0 118 -94.5 156t-246.5 38h-69q-25 -1 -54 -2v-432z" />
<glyph unicode="S" horiz-adv-x="1056" d="M16 432h304q6 -97 63 -145.5t136 -48.5q72 0 130.5 36t70.5 94q6 31 6 59q0 105 -67.5 146.5t-234 107t-253 155t-91.5 268.5q0 89 33.5 167.5t95.5 139t143 93t176 32.5q49 0 117 -16.5t140 -61t126 -132.5t65 -222h-304q-10 74 -53 111.5t-99 37.5q-61 0 -109 -40.5 t-48 -102.5q0 -16 5 -38q20 -71 134 -128t231.5 -113t196 -148.5t78.5 -250.5q0 -120 -45.5 -209t-119.5 -145t-161 -83t-170 -27q-138 0 -247 56t-175.5 162t-73.5 246z" />
<glyph unicode="T" horiz-adv-x="848" d="M0 1248v256h832v-256h-272v-1248h-288v1248h-272z" />
<glyph unicode="U" horiz-adv-x="1296" d="M144 448v1056h272v-1024q0 -114 68.5 -180t159.5 -66q56 0 107 28t82 83.5t31 134.5v1024h288v-1056q1 -9 1 -26q0 -115 -63.5 -215.5t-177.5 -161.5t-256 -61q-234 0 -373 120.5t-139 343.5z" />
<glyph unicode="V" horiz-adv-x="1424" d="M0 1504h304l416 -1152l416 1152h272l-576 -1504h-224z" />
<glyph unicode="W" horiz-adv-x="1824" d="M0 1504h288l256 -1040l256 1040h208l256 -1040l256 1040h288l-432 -1504h-224l-240 992l-256 -992h-224z" />
<glyph unicode="X" horiz-adv-x="1376" d="M0 1504h352l336 -512l352 512h320l-512 -736l512 -768h-336l-336 512l-352 -512h-320l512 768z" />
<glyph unicode="Y" horiz-adv-x="1264" d="M16 1504h288l336 -688l336 688h288l-480 -944v-560h-288v560z" />
<glyph unicode="Z" horiz-adv-x="1024" d="M32 0v256l560 992h-528v256h864v-256l-560 -976h592v-272h-928z" />
<glyph unicode="[" horiz-adv-x="656" d="M160 256v736q0 151 69.5 273t174.5 192.5t204 78.5v-304q-72 -22 -109 -59t-48.5 -78.5t-13.5 -96.5q-2 -56 -5 -70q-7 -38 -7 -180q0 -64 2 -145q1 -81 2 -139t2 -96t1 -80q0 -69 48.5 -143.5t111.5 -112.5v-304q-87 20 -187.5 87.5t-172.5 180.5t-72 260z" />
<glyph unicode="\" horiz-adv-x="1296" d="M160 1520h224l640 -1520h-224z" />
<glyph unicode="]" horiz-adv-x="656" d="M64 16q81 49 128.5 102t47.5 138v672q0 68 -11.5 111.5t-48 89.5t-116.5 119v272q59 0 135.5 -44t149 -118.5t118 -159t45.5 -158.5v-656q0 -131 -30.5 -242t-91 -197.5t-143 -137.5t-183.5 -63v272z" />
<glyph unicode="^" horiz-adv-x="1216" d="M128 752l368 768h256l352 -768l-208 -112l-272 592l-272 -576z" />
<glyph unicode="_" horiz-adv-x="1024" d="M-16 -96h1024v-176h-1024v176z" />
<glyph unicode="`" horiz-adv-x="848" d="M144 1536l128 208l448 -288l-112 -192z" />
<glyph unicode="a" horiz-adv-x="1344" d="M64 576q10 152 59.5 266t124.5 184.5t165.5 104t187.5 33.5q128 0 241 -55t166 -149v176h256v-1152h-256v144q-58 -82 -165 -129t-219 -47q-124 0 -227.5 47.5t-177.5 131.5t-114.5 199t-40.5 246zM336 560q0 -106 48.5 -182t126 -115t161.5 -39q183 11 259.5 96.5 t76.5 239.5q0 99 -46.5 176.5t-123.5 118.5t-166 41t-166 -41t-123.5 -118.5t-46.5 -176.5z" />
<glyph unicode="b" horiz-adv-x="1344" d="M112 0v1504h256v-480q177 130 373 130q126 0 236 -53t175 -141q53 -50 86.5 -109.5t51 -130.5t17.5 -143q0 -134 -56.5 -266.5t-162.5 -230.5q-49 -49 -139.5 -78t-192.5 -29q-122 0 -227 43t-161 128v-144h-256zM360 564q0 -134 88 -212q54 -61 122 -91t141 -30 q118 0 201 73q52 46 82 119t30 154q0 50 -13.5 97.5t-42.5 88t-72 69.5q-102 72 -214 72q-109 0 -202 -72q-54 -40 -87 -114.5t-33 -153.5z" />
<glyph unicode="c" horiz-adv-x="1296" d="M63 556q0 131 51 245.5t140 197t197.5 126t220.5 43.5q148 0 266.5 -67t192.5 -167t101 -198h-304q-36 160 -272 160q-98 0 -170.5 -55.5t-111 -137.5t-38.5 -159q7 -132 110 -217t231 -85q158 0 251 126h304q-66 -184 -198 -292t-346 -108q-9 0 -14.5 -0.5t-12.5 -0.5 q-134 0 -244 51t-188 138.5t-118.5 185t-46.5 186.5q0 9 -0.5 15t-0.5 13z" />
<glyph unicode="d" horiz-adv-x="1344" d="M48 560q0 181 85.5 321t222.5 213.5t284 73.5q121 0 186 -28.5t150 -99.5v464h272v-1504h-256v160q-54 -97 -165 -144.5t-203 -47.5q-143 0 -277.5 79t-216.5 215.5t-82 297.5zM336 576q0 -106 46.5 -182.5t121 -115t157.5 -38.5q128 0 224 86.5t107 249.5q1 10 1 28 q0 90 -45.5 158t-120.5 103.5t-157 35.5q-130 0 -226.5 -83t-107.5 -242z" />
<glyph unicode="e" horiz-adv-x="1296" d="M62 530q0 31 2 46q0 126 58.5 259.5t192.5 225t341 91.5q169 0 302 -71t206.5 -209.5t73.5 -330.5q0 -52 -6 -109h-864q36 -92 121 -145t186 -53q144 0 237 102h288q-31 -103 -104 -188t-179.5 -137t-228.5 -59q-8 0 -13.5 -0.5t-11.5 -0.5q-121 0 -231.5 49t-194 133 t-129.5 188t-46 209zM336 672h624q-27 81 -94.5 145t-166.5 64q-18 0 -27 -1q-91 0 -161 -30.5t-113.5 -77t-61.5 -100.5z" />
<glyph unicode="f" horiz-adv-x="576" d="M32 896v240h96q5 31 16.5 102t45 135t105 108t188.5 44q32 0 77 -5v-240q-82 0 -123 -35t-53 -109h160v-240h-160v-896h-256v896h-96z" />
<glyph unicode="g" horiz-adv-x="1344" d="M47 573q0 23 1 35q11 133 68.5 238t145.5 173t190 101.5t202 33.5q107 0 194 -38t128 -108v128h256v-1008q0 -189 -78.5 -320.5t-207.5 -196t-278 -64.5q-125 0 -242 43.5t-208 128t-138 201.5h304q41 -57 119.5 -96.5t162.5 -39.5q116 0 205.5 86t120.5 274 q-43 -62 -98.5 -103t-117.5 -60.5t-130 -19.5q-106 0 -213 46t-194.5 130t-139.5 198t-52 238zM330 571q0 -135 82 -233t228 -98q112 4 193.5 55t122 129.5t40.5 166.5q0 85 -38.5 158t-114.5 118t-187 45q-104 0 -177.5 -48t-111 -126.5t-37.5 -166.5z" />
<glyph unicode="h" horiz-adv-x="1216" d="M96 0v1504h272v-464q69 65 151 97t165 32q107 0 205.5 -49.5t156.5 -138t58 -197.5v-784h-272v656q0 84 -30.5 142.5t-81 87t-108.5 28.5q-62 0 -118 -30.5t-91 -90t-35 -137.5v-656h-272z" />
<glyph unicode="i" horiz-adv-x="480" d="M112 0v1136h272v-1136h-272zM112 1280v224h272v-224h-272z" />
<glyph unicode="j" horiz-adv-x="528" d="M32 -96q34 0 54.5 17.5t31 70.5t10.5 152v992h272v-960q0 -19 1 -35v-47q0 -92 -11.5 -167.5t-47 -142t-111 -109.5t-199.5 -43v272zM128 1280v224h272v-224h-272z" />
<glyph unicode="k" horiz-adv-x="1184" d="M112 0v1504h272v-864l352 496h336l-416 -544l480 -592h-368l-384 528v-528h-272z" />
<glyph unicode="l" horiz-adv-x="480" d="M112 0v1504h256v-1504h-256z" />
<glyph unicode="m" horiz-adv-x="1904" d="M112 0v1136h256v-112q37 74 121.5 117t183.5 43q61 0 119 -19t106 -58.5t78 -98.5q64 82 166 127.5t212 45.5q84 0 164 -27.5t141 -80t97 -133.5t36 -188v-752h-272v624q0 95 -29.5 160t-77 96.5t-103.5 31.5q-94 0 -166 -78.5t-72 -209.5v-624h-256v656q0 78 -32.5 135 t-86.5 87t-113 30q-56 0 -105.5 -28t-80 -85t-30.5 -139v-656h-256z" />
<glyph unicode="n" horiz-adv-x="1216" d="M112 0v1120h240v-96q44 62 128 96t185 34q114 0 218.5 -46t170.5 -140t66 -232v-736h-272v672q0 67 -35.5 118t-93 77.5t-117.5 26.5q-91 0 -154.5 -56.5t-63.5 -165.5v-672h-272z" />
<glyph unicode="o" horiz-adv-x="1296" d="M71 575q0 203 153 385q205 195 445 195q76 0 145 -19t128 -51t114 -80.5t96 -108.5q112 -152 112 -335q0 -105 -37 -208t-107 -193q-43 -57 -110 -97.5t-149.5 -60.5t-167.5 -20q-90 0 -178 21.5t-164 66t-127 106.5q-153 187 -153 399zM348 555q0 -124 84 -219 q97 -116 236 -116q74 0 142.5 34.5t101.5 81.5q72 96 72 222q0 60 -18.5 114.5t-53.5 95.5q-104 116 -255 116q-137 0 -225 -100q-84 -99 -84 -229z" />
<glyph unicode="p" horiz-adv-x="1344" d="M112 -384v1504h256v-144q78 90 170.5 136t195.5 46q61 0 126.5 -18t130 -54.5t129.5 -93.5q35 -31 69 -81.5t56.5 -104t35 -115t12.5 -131.5q0 -233 -157 -400q-85 -85 -193.5 -132.5t-223.5 -47.5q-56 0 -113 12.5t-114 38.5t-108 65v-480h-272zM358 575 q0 -91 44.5 -170.5t120 -127.5t163.5 -48q131 0 242 107q102 96 102 220q0 86 -48.5 163t-129 124t-167.5 47q-82 0 -160.5 -45.5t-140.5 -140.5q-26 -62 -26 -129z" />
<glyph unicode="q" horiz-adv-x="1344" d="M57 568q0 138 59 259.5t172 196.5q77 64 168 99t183 35q97 0 182.5 -40t154.5 -126v128h256v-1504h-256v480q-86 -63 -182.5 -95.5t-194.5 -32.5q-108 0 -205 40.5t-170 119.5q-81 93 -124 207.5t-43 232.5zM336 560q0 -81 36 -159t106 -128t168 -50q17 0 26 1 q138 0 221 98.5t83 237.5q0 86 -43 160t-117 117t-160 43q-80 0 -154.5 -40.5t-120 -115t-45.5 -164.5z" />
<glyph unicode="r" horiz-adv-x="656" d="M96 0v1120h256v-80q56 56 114.5 86.5t157.5 41.5v-272q-111 -21 -157 -40.5t-72.5 -75.5t-26.5 -172v-608h-272z" />
<glyph unicode="s" horiz-adv-x="896" d="M32 352h288q15 -56 54 -85.5t84 -29.5q50 0 84 31t34 84q0 43 -44 68.5t-141 57t-135 50.5q-98 49 -143.5 131t-45.5 173q0 50 13 96q23 82 87.5 136t144.5 79t152 25q110 0 190 -42.5t121.5 -118.5t41.5 -173q0 -22 -1 -34h-256q-23 61 -56.5 89.5t-71.5 28.5 q-41 0 -71.5 -29.5t-30.5 -68.5q0 -59 70 -100q11 -7 88 -26t150.5 -50t133 -90.5t76.5 -153.5q3 -21 3 -43q0 -65 -27 -136t-79 -132.5t-129 -99.5t-170 -38q-64 0 -126 17q-121 24 -198.5 126.5t-89.5 257.5z" />
<glyph unicode="t" horiz-adv-x="608" d="M0 896v240h144v368h272v-368h160v-240h-160v-896h-272v896h-144z" />
<glyph unicode="u" horiz-adv-x="1216" d="M112 512v624h272v-624q0 -134 70.5 -214t163.5 -80q57 0 105.5 32.5t78.5 99.5t30 162v624h288v-1136h-240v112q-74 -81 -159.5 -122t-172.5 -41q-86 0 -164.5 38.5t-140.5 113t-96.5 179.5t-34.5 232z" />
<glyph unicode="v" d="M-16 1136h304l272 -752l256 752h288l-432 -1136h-224z" />
<glyph unicode="w" horiz-adv-x="1632" d="M0 1136h288l224 -688l192 688h208l192 -688l192 688h288l-384 -1136h-176l-224 704l-208 -704h-176z" />
<glyph unicode="x" d="M-16 0l400 576l-352 560h320l192 -320l208 320h304l-352 -560l416 -576h-352l-224 368l-224 -368h-336z" />
<glyph unicode="y" horiz-adv-x="1184" d="M-16 1136h320l272 -752l256 752h320l-656 -1536h-304l224 480z" />
<glyph unicode="z" horiz-adv-x="928" d="M32 0v240l512 656h-448v240h768v-256l-496 -640h528v-240h-864z" />
<glyph unicode="{" horiz-adv-x="688" d="M64 608q104 35 148 82t44 110v400q0 111 23.5 174t70.5 91t108.5 33.5t181.5 5.5q-100 -33 -146 -94.5t-46 -129.5v-464q0 -84 -38 -134t-122 -74q81 -12 120.5 -66.5t39.5 -141.5v-336q0 -102 4 -152t19 -86t50.5 -63t102.5 -51q-17 -1 -49 -1q-115 0 -184 26.5 t-101 74.5t-41 110t-9 158v336q0 61 -11.5 96t-48.5 57.5t-116 38.5z" />
<glyph unicode="|" horiz-adv-x="1216" d="M496 0v1520h240v-1520h-240z" />
<glyph unicode="}" horiz-adv-x="688" d="M64 -256q58 8 97 36.5t59 85t20 150.5v368q0 83 18.5 126.5t44 60.5t97.5 53q-77 43 -108.5 72.5t-41.5 69t-10 114.5v400q0 101 -41.5 150.5t-134.5 89.5q19 2 56 2q139 0 233.5 -57t94.5 -169v-432q0 -105 43 -172.5t133 -67.5q-67 -20 -101.5 -41t-54.5 -67.5 t-20 -131.5v-416q0 -71 -36.5 -125t-100 -82.5t-142.5 -28.5q-51 0 -105 12z" />
<glyph unicode="~" horiz-adv-x="1216" d="M112 576q0 32 47 92t113.5 108.5t127.5 55.5q72 -3 136 -20t123.5 -43.5t103 -45t73.5 -18.5q41 0 78 32t78 111l144 -176q-49 -82 -131.5 -161t-156.5 -79q-65 6 -127 27.5t-131 54.5t-106.5 48t-72.5 15q-94 0 -171 -161z" />
<glyph unicode="&#xa1;" horiz-adv-x="576" d="M128 -368v1104h272v-1104h-272zM128 864v256h272v-256h-272z" />
<glyph unicode="&#xa2;" d="M81 768q0 106 40 202.5t122 166t205 95.5v208h256v-208q118 -29 193.5 -92t109 -134t33.5 -126h-272q-15 42 -66 66t-117 24q-91 0 -158.5 -50.5t-74.5 -151.5q0 -112 69.5 -170.5t163.5 -58.5q58 0 104 23t63 62h288q-7 -68 -57.5 -145.5t-126 -130.5t-152.5 -60v-224 h-256v224q-112 16 -195.5 87t-127.5 176t-44 217z" />
<glyph unicode="&#xa3;" d="M0 624v256h112q-38 70 -38 158q0 112 61.5 222t172.5 182t252 78q110 0 201 -42t153.5 -105.5t96 -133.5t33.5 -121q0 -12 -4 -30h-272q-16 82 -69.5 123t-122.5 41q-57 0 -111 -27t-87 -75t-33 -110q0 -78 55 -160h432v-272h-208q58 -70 58 -186q0 -80 -26 -182 q74 0 145 47t71 176q0 33 -8 81h272q5 -43 5 -77q0 -122 -44.5 -228.5t-132.5 -172.5t-212 -66h-688v240h288q50 75 50 153q0 63 -35 122t-111 109h-256z" />
<glyph unicode="&#xa4;" d="M80 1152l176 176l96 -96q30 30 108 55.5t162 25.5q150 0 258 -81l80 96l160 -160l-80 -80q92 -148 92 -270q0 -129 -92 -258l96 -96l-176 -160l-80 96q-34 -40 -110 -65.5t-160 -25.5q-74 0 -142 22t-116 69l-96 -96l-160 176l96 80q-86 111 -86 254q0 129 70 258z M351 815q0 -103 72.5 -179t200.5 -76q115 6 179.5 79.5t64.5 173.5q0 66 -30.5 126t-88.5 96.5t-141 36.5q-124 -10 -190.5 -84t-66.5 -173z" />
<glyph unicode="&#xa5;" d="M-64 1488h304l336 -688l320 688h304l-288 -544h192v-176h-272l-128 -224h400v-176h-400v-368h-272v368h-384v176h384l-128 224h-272v176h192z" />
<glyph unicode="&#xa6;" horiz-adv-x="768" d="M496 0v1488h240v-1488h-240z" />
<glyph unicode="&#xa7;" d="M53 728q0 48 18 97.5t55.5 103.5t97.5 111q-29 36 -45 81t-16 94q0 83 46 162t135.5 127t215.5 48q96 0 176.5 -22t137 -67t87.5 -115.5t31 -163.5h-240q-20 61 -67 89.5t-106 28.5q-64 0 -113.5 -30t-49.5 -71q0 -53 80 -97q42 -26 78 -41.5t125 -52t142.5 -64.5 t102.5 -66q31 -21 59 -61.5t45 -93t17 -106.5q0 -173 -169 -283q54 -46 83.5 -112t29.5 -140q0 -94 -48.5 -180t-143.5 -139t-225 -53h-26q-131 0 -219.5 45t-141 113.5t-74 134.5t-21.5 115q0 12 2 24h256q8 -86 65.5 -128.5t135.5 -42.5q68 0 122.5 32t54.5 81 q0 43 -49.5 91.5t-152.5 94.5q-215 92 -353 203.5t-138 252.5zM310 761q0 -45 44.5 -82t117.5 -71.5t153 -73t111 -70.5q82 67 82 124q0 48 -48 86t-130 78q-55 31 -98 52.5t-95 45.5t-63 30q-74 -65 -74 -119z" />
<glyph unicode="&#xa8;" horiz-adv-x="1024" d="M160 1248v272h272v-272h-272zM576 1248v272h272v-272h-272z" />
<glyph unicode="&#xa9;" horiz-adv-x="1504" d="M-34 767q0 195 86.5 366.5t264 277t435.5 109.5q189 -3 337.5 -69.5t247 -179t148 -251.5t49.5 -289q0 -143 -46 -277.5t-135.5 -243t-226.5 -177.5t-310 -81q-40 -2 -60 -2q-241 0 -421.5 116.5t-274.5 305.5t-94 395zM125 768q0 -165 77 -314.5t227.5 -243.5t354.5 -98 q143 0 253.5 53t187 145.5t116 209.5t39.5 237q0 121 -38 232t-116 198t-197.5 138t-276.5 51q-155 -4 -274 -56.5t-196 -136.5t-117 -192.5t-40 -222.5zM339 739q0 88 28.5 171.5t83.5 148.5t134.5 103t182.5 38q91 0 163 -29t122 -77.5t74.5 -101t24.5 -96.5h-176 q-19 75 -70 113.5t-118 38.5q-63 0 -123.5 -35t-98.5 -102.5t-38 -158.5q7 -162 75 -238.5t164 -76.5q49 0 94.5 20t76.5 56t38 79h176q-7 -74 -62.5 -146t-139.5 -115.5t-171 -43.5q-18 0 -27 1q-136 12 -229 77t-138.5 163.5t-45.5 210.5z" />
<glyph unicode="&#xaa;" horiz-adv-x="736" d="M52 1221q0 85 37 161t112 123t183 47q47 0 99 -29.5t77 -66.5v80h128v-624h-128v64l-38.5 -27.5t-41 -25t-51 -20t-61.5 -7.5q-101 0 -172.5 46t-107.5 119.5t-36 159.5zM64 656v128h624v-128h-624zM202 1232q0 -76 49.5 -134t132.5 -58q80 0 126 57.5t46 132.5 t-47 126.5t-141 51.5q-79 -6 -122.5 -56t-43.5 -120z" />
<glyph unicode="&#xab;" horiz-adv-x="929" d="M80 561v224l272 240v-256l-128 -96l128 -112v-256zM513 561v224l272 240v-256l-128 -96l128 -112v-256z" />
<glyph unicode="&#xac;" horiz-adv-x="1216" d="M112 720v256h1008v-608h-240v352h-768z" />
<glyph unicode="&#xad;" horiz-adv-x="848" d="M144 544v240h560v-240h-560z" />
<glyph unicode="&#xae;" horiz-adv-x="1504" d="M-19 772q0 148 48 284t145.5 245t247.5 176.5t346 74.5q199 0 353 -63.5t256.5 -174t154.5 -251.5t52 -290q0 -207 -93.5 -392t-281 -303.5t-441.5 -125.5h-29q-228 0 -402 117t-265 305.5t-91 397.5zM138 740q0 -118 39.5 -230t117.5 -200.5t193.5 -141.5t263.5 -56 q154 0 275.5 54t203 150.5t121.5 213.5t40 243t-38.5 239t-113.5 201.5t-192.5 141.5t-263.5 53q-157 -6 -279 -64t-202.5 -151.5t-122.5 -212t-42 -240.5zM432 320v848h512q78 0 133.5 -33.5t84 -88t28.5 -116.5q0 -95 -63.5 -165.5t-182.5 -76.5l208 -368h-192l-192 368 h-160v-368h-176zM608 816h240q77 0 122.5 38.5t45.5 87.5q0 48 -43.5 81t-124.5 33h-240v-240z" />
<glyph unicode="&#xb1;" horiz-adv-x="1217" />
<glyph unicode="&#xb2;" horiz-adv-x="688" />
<glyph unicode="&#xb3;" horiz-adv-x="688" />
<glyph unicode="&#xb4;" horiz-adv-x="848" d="M144 1424l448 288l112 -224l-464 -256z" />
<glyph unicode="&#xb5;" horiz-adv-x="1167" />
<glyph unicode="&#xb6;" horiz-adv-x="1216" d="M67 1103q0 107 58 203.5t174 155t277 58.5h496v-1776h-208v1568h-160v-1568h-208v928q-138 19 -234.5 83t-145.5 155.5t-49 192.5z" />
<glyph unicode="&#xb7;" horiz-adv-x="576" d="M270 661q0 90 38.5 169.5t119 128.5t196.5 49q157 -17 240.5 -119.5t83.5 -235.5q0 -89 -37.5 -167t-110.5 -128t-176 -54q-113 0 -193.5 50.5t-120.5 133.5t-40 173z" />
<glyph unicode="&#xb8;" horiz-adv-x="688" d="M144 -240l64 240h112l-32 -112q20 7 45 7q37 0 75.5 -16t68 -44t48.5 -72t19 -99q0 -54 -30 -97.5t-78 -68t-102 -24.5q-68 0 -121 43t-69 131h96q16 -27 45.5 -43.5t59.5 -16.5q37 0 62 27t25 81q0 39 -26.5 65.5t-63.5 26.5q-51 0 -86 -60z" />
<glyph unicode="&#xb9;" horiz-adv-x="688" />
<glyph unicode="&#xba;" horiz-adv-x="736" d="M64 656v128h624v-128h-624zM64 1234q0 81 37.5 154t110.5 118.5t172 45.5q109 0 185 -42.5t112.5 -112t36.5 -149.5q0 -60 -20 -116t-58 -100.5t-95 -72.5t-129 -31q-116 0 -195.5 42.5t-118 113t-38.5 150.5zM206 1246q0 -70 52 -122t142 -52q71 0 115.5 56t44.5 129 q0 70 -43.5 118.5t-132.5 48.5q-84 -6 -131 -57.5t-47 -120.5z" />
<glyph unicode="&#xbb;" horiz-adv-x="929" d="M160 304v256l128 96l-128 112v256l272 -240v-224zM576 304v256l128 96l-128 112v256l272 -240v-224z" />
<glyph unicode="&#xbc;" horiz-adv-x="1712" />
<glyph unicode="&#xbd;" horiz-adv-x="1712" />
<glyph unicode="&#xbe;" horiz-adv-x="1712" />
<glyph unicode="&#xbf;" d="M126 47q0 124 82 241q40 57 92 102t91 78.5t60.5 75t21.5 110.5q0 41 -9 98h272q0 -23 1 -43v-50q0 -80 -8.5 -136t-35.5 -106.5t-85 -96.5q-234 -166 -234 -307q0 -71 58.5 -114.5t137.5 -43.5q84 0 147 53.5t67 155.5h272q1 -9 1 -26q0 -79 -32.5 -157.5t-92 -142 t-139.5 -101t-169 -37.5q-116 0 -231.5 60t-191 163t-75.5 224zM464 864v272h272v-272h-272z" />
<glyph unicode="&#xc0;" horiz-adv-x="1504" d="M16 0l624 1504h208l640 -1504h-304l-160 384h-544l-160 -384h-304zM480 1888l128 208l448 -288l-112 -192zM592 656h320l-160 432z" />
<glyph unicode="&#xc1;" horiz-adv-x="1504" d="M16 0l624 1504h208l640 -1504h-304l-160 384h-544l-160 -384h-304zM480 1809l448 288l112 -224l-464 -256zM592 656h320l-160 432z" />
<glyph unicode="&#xc2;" horiz-adv-x="1504" d="M16 0l624 1504h208l640 -1504h-304l-160 384h-544l-160 -384h-304zM320 1615l304 272h224l272 -272h-288l-96 128l-112 -128h-304zM592 656h320l-160 432z" />
<glyph unicode="&#xc3;" horiz-adv-x="1504" d="M16 0l624 1504h208l640 -1504h-304l-160 384h-544l-160 -384h-304zM384 1791q19 29 73.5 55.5t122.5 26.5q73 0 140 -34q47 -24 91 -24q55 0 149 56l96 -176q-91 -91 -213 -91q-65 0 -139 27q-35 14 -74 14q-31 0 -60.5 -7t-89.5 -23zM592 656h320l-160 432z" />
<glyph unicode="&#xc4;" horiz-adv-x="1504" d="M16 0l624 1504h208l640 -1504h-304l-160 384h-544l-160 -384h-304zM383 1617v272h272v-272h-272zM592 656h320l-160 432zM799 1617v272h272v-272h-272z" />
<glyph unicode="&#xc5;" horiz-adv-x="1504" d="M16 0l624 1504h208l640 -1504h-304l-160 384h-544l-160 -384h-304zM492 1824q0 85 55 146.5t157 61.5q101 0 154.5 -59t53.5 -143q0 -86 -58.5 -150t-165.5 -64q-91 0 -143.5 62t-52.5 146zM592 656h320l-160 432zM620 1832q0 -34 24.5 -61t59.5 -27q36 0 57 26t21 59 q0 32 -19.5 53.5t-58.5 21.5q-40 0 -62 -20.5t-22 -51.5z" />
<glyph unicode="&#xc6;" horiz-adv-x="1824" d="M32 0l976 1472h704v-272h-448v-336h416v-272h-416v-336h448v-256h-736v368h-400l-224 -368h-320zM752 640h224v368z" />
<glyph unicode="&#xc7;" horiz-adv-x="1584" d="M48 784q6 95 58.5 221.5t149 244.5t237 194t316.5 76h23q133 0 278.5 -57t262.5 -163.5t163 -243.5h-320q-88 96 -185.5 142t-199.5 46q-128 0 -243.5 -70.5t-183.5 -184.5t-68 -237q0 -140 81 -258.5t207.5 -186.5t254.5 -68q95 0 173.5 39t131.5 122h336 q-55 -150 -182 -248.5t-275.5 -142t-267.5 -43.5q-17 0 -43 2l-16 -64q20 7 45 7q37 0 75.5 -16t68 -44t48.5 -72t19 -99q0 -54 -30 -97.5t-78 -68t-102 -24.5q-68 0 -121 43t-69 131h96q16 -27 45.5 -43.5t59.5 -16.5q37 0 62 27t25 81q0 39 -26.5 65.5t-63.5 26.5 q-51 0 -86 -60l-112 32l64 208q-128 31 -239.5 98.5t-193 166.5t-128.5 235t-47 300z" />
<glyph unicode="&#xc8;" horiz-adv-x="1056" d="M128 0v1504h800v-272h-528v-368h512v-256h-512v-352h528v-256h-800zM257 1888l128 208l448 -288l-112 -192z" />
<glyph unicode="&#xc9;" horiz-adv-x="1056" d="M128 0v1504h800v-272h-528v-368h512v-256h-512v-352h528v-256h-800zM240 1809l448 288l112 -224l-464 -256z" />
<glyph unicode="&#xca;" horiz-adv-x="1057" d="M111 1632l304 272h224l272 -272h-288l-96 128l-112 -128h-304zM128 0v1504h800v-272h-528v-368h512v-256h-512v-352h528v-256h-800z" />
<glyph unicode="&#xcb;" horiz-adv-x="1057" d="M128 0v1504h800v-272h-528v-368h512v-256h-512v-352h528v-256h-800zM193 1697v272h272v-272h-272zM609 1697v272h272v-272h-272z" />
<glyph unicode="&#xcc;" horiz-adv-x="575" d="M31 1985l128 208l448 -288l-112 -192zM128 0v1504h288v-1504h-288z" />
<glyph unicode="&#xcd;" horiz-adv-x="576" d="M97 1936l448 288l112 -224l-464 -256zM128 0v1504h288v-1504h-288z" />
<glyph unicode="&#xce;" horiz-adv-x="576" d="M-112 1728l304 272h224l272 -272h-288l-96 128l-112 -128h-304zM128 0v1504h288v-1504h-288z" />
<glyph unicode="&#xcf;" horiz-adv-x="575" d="M-49 1760v272h272v-272h-272zM128 0v1504h288v-1504h-288zM367 1760v272h272v-272h-272z" />
<glyph unicode="&#xd0;" horiz-adv-x="1503" />
<glyph unicode="&#xd1;" horiz-adv-x="1504" d="M128 0v1504h304l640 -1104v1104h272v-1504h-304l-624 1088v-1088h-288zM400 1808q19 29 73.5 55.5t122.5 26.5q73 0 140 -34q47 -24 91 -24q55 0 149 56l96 -176q-91 -91 -213 -91q-65 0 -139 27q-35 14 -74 14q-31 0 -60.5 -7t-89.5 -23z" />
<glyph unicode="&#xd2;" horiz-adv-x="1712" d="M64 720q6 216 83 372.5t195 249.5t255.5 135.5t266.5 42.5q175 0 322.5 -70t252.5 -184.5t159.5 -245t54.5 -250.5q0 -31 -5 -66q-14 -123 -60.5 -248.5t-139.5 -236.5t-246.5 -181t-369.5 -70q-198 0 -346.5 79t-239.5 197t-136.5 247.5t-45.5 228.5zM352 720 q7 -163 82.5 -271.5t183.5 -158.5t214 -50q99 0 192 42.5t166 117.5t113.5 166t40.5 186q0 122 -57.5 233.5t-167 183.5t-255.5 79q-92 0 -178.5 -26t-159.5 -85.5t-120.5 -164t-53.5 -252.5zM560 1888l128 208l448 -288l-112 -192z" />
<glyph unicode="&#xd3;" horiz-adv-x="1712" d="M64 720q6 216 83 372.5t195 249.5t255.5 135.5t266.5 42.5q175 0 322.5 -70t252.5 -184.5t159.5 -245t54.5 -250.5q0 -31 -5 -66q-14 -123 -60.5 -248.5t-139.5 -236.5t-246.5 -181t-369.5 -70q-198 0 -346.5 79t-239.5 197t-136.5 247.5t-45.5 228.5zM352 720 q7 -163 82.5 -271.5t183.5 -158.5t214 -50q99 0 192 42.5t166 117.5t113.5 166t40.5 186q0 122 -57.5 233.5t-167 183.5t-255.5 79q-92 0 -178.5 -26t-159.5 -85.5t-120.5 -164t-53.5 -252.5zM576 1823l448 288l112 -224l-464 -256z" />
<glyph unicode="&#xd4;" horiz-adv-x="1712" d="M64 720q6 216 83 372.5t195 249.5t255.5 135.5t266.5 42.5q175 0 322.5 -70t252.5 -184.5t159.5 -245t54.5 -250.5q0 -31 -5 -66q-14 -123 -60.5 -248.5t-139.5 -236.5t-246.5 -181t-369.5 -70q-198 0 -346.5 79t-239.5 197t-136.5 247.5t-45.5 228.5zM352 720 q7 -163 82.5 -271.5t183.5 -158.5t214 -50q99 0 192 42.5t166 117.5t113.5 166t40.5 186q0 122 -57.5 233.5t-167 183.5t-255.5 79q-92 0 -178.5 -26t-159.5 -85.5t-120.5 -164t-53.5 -252.5zM433 1681l304 272h224l272 -272h-288l-96 128l-112 -128h-304z" />
<glyph unicode="&#xd5;" horiz-adv-x="1712" d="M64 720q6 216 83 372.5t195 249.5t255.5 135.5t266.5 42.5q175 0 322.5 -70t252.5 -184.5t159.5 -245t54.5 -250.5q0 -31 -5 -66q-14 -123 -60.5 -248.5t-139.5 -236.5t-246.5 -181t-369.5 -70q-198 0 -346.5 79t-239.5 197t-136.5 247.5t-45.5 228.5zM352 720 q7 -163 82.5 -271.5t183.5 -158.5t214 -50q99 0 192 42.5t166 117.5t113.5 166t40.5 186q0 122 -57.5 233.5t-167 183.5t-255.5 79q-92 0 -178.5 -26t-159.5 -85.5t-120.5 -164t-53.5 -252.5zM488 1823l448 288l112 -224l-464 -256zM1048 1823l448 288l112 -224l-464 -256z " />
<glyph unicode="&#xd6;" horiz-adv-x="1712" d="M64 720q6 216 83 372.5t195 249.5t255.5 135.5t266.5 42.5q175 0 322.5 -70t252.5 -184.5t159.5 -245t54.5 -250.5q0 -31 -5 -66q-14 -123 -60.5 -248.5t-139.5 -236.5t-246.5 -181t-369.5 -70q-198 0 -346.5 79t-239.5 197t-136.5 247.5t-45.5 228.5zM352 720 q7 -163 82.5 -271.5t183.5 -158.5t214 -50q99 0 192 42.5t166 117.5t113.5 166t40.5 186q0 122 -57.5 233.5t-167 183.5t-255.5 79q-92 0 -178.5 -26t-159.5 -85.5t-120.5 -164t-53.5 -252.5zM496 1664v272h272v-272h-272zM912 1664v272h272v-272h-272z" />
<glyph unicode="&#xd8;" horiz-adv-x="1712" d="M64 720q6 216 83 372.5t195 249.5t255.5 135.5t266.5 42.5q75 0 141.5 -16t162.5 -48l128 192l224 -144l-128 -192q126 -115 192 -268.5t66 -294.5q0 -15 -2 -45q-14 -123 -60.5 -248.5t-139.5 -236.5t-246.5 -181t-369.5 -70q-85 0 -154.5 16t-165.5 48l-112 -176 l-224 160l112 176q-111 111 -167.5 258.5t-56.5 269.5zM352 720q0 -87 26 -158.5t70 -145.5l560 800q-96 32 -144 32q-92 0 -178.5 -26t-159.5 -85.5t-120.5 -164t-53.5 -252.5zM672 272q43 -21 77.5 -26.5t82.5 -5.5q99 0 192 42.5t166 117.5t113.5 166t40.5 186 q0 152 -112 320l-416 -608z" />
<glyph unicode="&#xd9;" horiz-adv-x="1296" d="M144 448v1056h272v-1024q0 -114 68.5 -180t159.5 -66q56 0 107 28t82 83.5t31 134.5v1024h288v-1056q1 -9 1 -26q0 -115 -63.5 -215.5t-177.5 -161.5t-256 -61q-234 0 -373 120.5t-139 343.5zM400 1905l128 208l448 -288l-112 -192z" />
<glyph unicode="&#xda;" horiz-adv-x="1296" d="M144 448v1056h272v-1024q0 -114 68.5 -180t159.5 -66q56 0 107 28t82 83.5t31 134.5v1024h288v-1056q1 -9 1 -26q0 -115 -63.5 -215.5t-177.5 -161.5t-256 -61q-234 0 -373 120.5t-139 343.5zM367 1856l448 288l112 -224l-464 -256z" />
<glyph unicode="&#xdb;" horiz-adv-x="1296" d="M144 448v1056h272v-1024q0 -114 68.5 -180t159.5 -66q56 0 107 28t82 83.5t31 134.5v1024h288v-1056q1 -9 1 -26q0 -115 -63.5 -215.5t-177.5 -161.5t-256 -61q-234 0 -373 120.5t-139 343.5zM183 1856l448 288l112 -224l-464 -256zM735 1856l448 288l112 -224l-464 -256 z" />
<glyph unicode="&#xdc;" horiz-adv-x="1296" d="M144 432v1056h272v-1024q0 -114 68.5 -180t159.5 -66q56 0 107 28t82 83.5t31 134.5v1024h288v-1056q1 -9 1 -26q0 -115 -63.5 -215.5t-177.5 -161.5t-256 -61q-234 0 -373 120.5t-139 343.5zM303 1664v272h272v-272h-272zM719 1664v272h272v-272h-272z" />
<glyph unicode="&#xdd;" horiz-adv-x="1264" />
<glyph unicode="&#xde;" horiz-adv-x="1137" />
<glyph unicode="&#xdf;" horiz-adv-x="1216" d="M111 1015q0 152 46.5 271.5t154.5 192.5t280 73q83 0 159.5 -36t137.5 -98.5t95.5 -141.5t34.5 -161q0 -165 -139 -283q164 -50 243.5 -155t79.5 -235q0 -119 -62 -233.5t-170 -185.5t-235 -71q-94 0 -161 20t-121 68.5t-102 135.5v-176h-240v960q-1 18 -1 55zM367 1060 q0 -5 0.5 -9t0.5 -11v-656h176q28 -79 81 -119.5t113 -40.5q48 0 93 24.5t72 68.5t27 100q0 20 -2 31q-11 84 -54 125.5t-99 52.5t-135 11q-80 0 -112 3v256q18 -2 27 -2q79 0 131 54t52 141q0 9 -2 31q-4 73 -55.5 116t-119.5 43q-49 0 -94 -24.5t-72.5 -74t-27.5 -120.5z " />
<glyph unicode="&#xe0;" horiz-adv-x="1344" d="M64 576q10 152 59.5 266t124.5 184.5t165.5 104t187.5 33.5q128 0 241 -55t166 -149v176h256v-1152h-256v144q-58 -82 -165 -129t-219 -47q-124 0 -227.5 47.5t-177.5 131.5t-114.5 199t-40.5 246zM336 560q0 -106 48.5 -182t126 -115t161.5 -39q183 11 259.5 96.5 t76.5 239.5q0 99 -46.5 176.5t-123.5 118.5t-166 41t-166 -41t-123.5 -118.5t-46.5 -176.5zM384 1520l128 208l448 -288l-112 -192z" />
<glyph unicode="&#xe1;" horiz-adv-x="1344" d="M64 576q10 152 59.5 266t124.5 184.5t165.5 104t187.5 33.5q128 0 241 -55t166 -149v176h256v-1152h-256v144q-58 -82 -165 -129t-219 -47q-124 0 -227.5 47.5t-177.5 131.5t-114.5 199t-40.5 246zM336 560q0 -106 48.5 -182t126 -115t161.5 -39q183 11 259.5 96.5 t76.5 239.5q0 99 -46.5 176.5t-123.5 118.5t-166 41t-166 -41t-123.5 -118.5t-46.5 -176.5zM400 1424l448 288l112 -224l-464 -256z" />
<glyph unicode="&#xe2;" horiz-adv-x="1344" d="M64 576q10 152 59.5 266t124.5 184.5t165.5 104t187.5 33.5q128 0 241 -55t166 -149v176h256v-1152h-256v144q-58 -82 -165 -129t-219 -47q-124 0 -227.5 47.5t-177.5 131.5t-114.5 199t-40.5 246zM273 1263l304 272h224l272 -272h-288l-96 128l-112 -128h-304zM336 560 q0 -106 48.5 -182t126 -115t161.5 -39q183 11 259.5 96.5t76.5 239.5q0 99 -46.5 176.5t-123.5 118.5t-166 41t-166 -41t-123.5 -118.5t-46.5 -176.5z" />
<glyph unicode="&#xe3;" horiz-adv-x="1344" d="M64 576q10 152 59.5 266t124.5 184.5t165.5 104t187.5 33.5q128 0 241 -55t166 -149v176h256v-1152h-256v144q-58 -82 -165 -129t-219 -47q-124 0 -227.5 47.5t-177.5 131.5t-114.5 199t-40.5 246zM336 560q0 -106 48.5 -182t126 -115t161.5 -39q183 11 259.5 96.5 t76.5 239.5q0 99 -46.5 176.5t-123.5 118.5t-166 41t-166 -41t-123.5 -118.5t-46.5 -176.5zM337 1472q19 29 73.5 55.5t122.5 26.5q73 0 140 -34q47 -24 91 -24q55 0 149 56l96 -176q-91 -91 -213 -91q-65 0 -139 27q-35 14 -74 14q-31 0 -60.5 -7t-89.5 -23z" />
<glyph unicode="&#xe4;" horiz-adv-x="1344" d="M64 576q10 152 59.5 266t124.5 184.5t165.5 104t187.5 33.5q128 0 241 -55t166 -149v176h256v-1152h-256v144q-58 -82 -165 -129t-219 -47q-124 0 -227.5 47.5t-177.5 131.5t-114.5 199t-40.5 246zM320 1264v272h272v-272h-272zM336 560q0 -106 48.5 -182t126 -115 t161.5 -39q183 11 259.5 96.5t76.5 239.5q0 99 -46.5 176.5t-123.5 118.5t-166 41t-166 -41t-123.5 -118.5t-46.5 -176.5zM736 1264v272h272v-272h-272z" />
<glyph unicode="&#xe5;" horiz-adv-x="1344" d="M64 576q10 152 59.5 266t124.5 184.5t165.5 104t187.5 33.5q128 0 241 -55t166 -149v176h256v-1152h-256v144q-58 -82 -165 -129t-219 -47q-124 0 -227.5 47.5t-177.5 131.5t-114.5 199t-40.5 246zM336 560q0 -106 48.5 -182t126 -115t161.5 -39q183 11 259.5 96.5 t76.5 239.5q0 99 -46.5 176.5t-123.5 118.5t-166 41t-166 -41t-123.5 -118.5t-46.5 -176.5zM459 1472q0 85 55 146.5t157 61.5q101 0 154.5 -59t53.5 -143q0 -86 -58.5 -150t-165.5 -64q-91 0 -143.5 62t-52.5 146zM587 1480q0 -34 24.5 -61t59.5 -27q36 0 57 26t21 59 q0 32 -19.5 53.5t-58.5 21.5q-40 0 -62 -20.5t-22 -51.5z" />
<glyph unicode="&#xe6;" horiz-adv-x="2192" d="M62 589q0 114 38 224t111.5 197.5t182 138.5t246.5 51q80 0 161 -22.5t175 -105.5v128h240v-128q162 123 342 123q112 0 216 -48.5t183 -134.5t123 -197t44 -232q0 -59 -12 -119h-880q36 -61 91.5 -107.5t122 -72t133.5 -25.5q61 0 115.5 22.5t97.5 70.5h304 q-105 -184 -250.5 -271t-296.5 -87q-102 0 -188.5 35.5t-144.5 98.5v-128h-240v128q-96 -64 -170.5 -96t-181.5 -32q-181 7 -308.5 91t-190.5 217t-63 281zM330 608q0 -85 36 -162.5t107 -125.5t167 -48q81 3 142 31.5t100 72t58.5 99t19.5 116.5t-20.5 122t-59 107.5 t-96 75.5t-128.5 32q-159 0 -242.5 -93t-83.5 -227zM1232 720h592q-45 102 -120 151t-163 49q-101 0 -188.5 -56.5t-120.5 -143.5z" />
<glyph unicode="&#xe7;" horiz-adv-x="1296" d="M48 586q0 70 16 134q51 144 142 243.5t206.5 149t236.5 49.5q87 0 172.5 -26t159.5 -78t131.5 -130t87.5 -176h-288q-41 58 -112 89t-152 31t-152 -31t-112 -89q-51 -70 -51 -182q0 -151 83 -234q44 -44 112.5 -68t142.5 -24q85 0 150.5 31.5t90.5 92.5h320 q-39 -114 -115 -205t-186.5 -144.5t-240.5 -53.5q-33 0 -66 3l-32 -96q20 26 68 26q42 0 86.5 -23.5t73.5 -71t29 -116.5q0 -15 -1 -23q0 -78 -54.5 -123t-131.5 -45q-72 0 -131.5 42.5t-82.5 125.5h112q35 -70 96 -70q30 0 52.5 23t27.5 63q1 7 1 20q0 48 -23 71t-59 23 q-32 0 -60.5 -19t-34.5 -47l-112 48l80 208q-135 21 -245 110.5t-172.5 219.5t-62.5 272z" />
<glyph unicode="&#xe8;" horiz-adv-x="1296" d="M78 497q0 31 2 46q0 126 58.5 259.5t192.5 225t341 91.5q169 0 302 -71t206.5 -209.5t73.5 -330.5q0 -52 -6 -109h-864q36 -92 121 -145t186 -53q144 0 237 102h288q-31 -103 -104 -188t-179.5 -137t-228.5 -59q-8 0 -13.5 -0.5t-11.5 -0.5q-121 0 -231.5 49t-194 133 t-129.5 188t-46 209zM352 639h624q-27 81 -94.5 145t-166.5 64q-18 0 -27 -1q-91 0 -161 -30.5t-113.5 -77t-61.5 -100.5zM353 1503l128 208l448 -288l-112 -192z" />
<glyph unicode="&#xe9;" horiz-adv-x="1296" d="M78 497q0 31 2 46q0 126 58.5 259.5t192.5 225t341 91.5q169 0 302 -71t206.5 -209.5t73.5 -330.5q0 -52 -6 -109h-864q36 -92 121 -145t186 -53q144 0 237 102h288q-31 -103 -104 -188t-179.5 -137t-228.5 -59q-8 0 -13.5 -0.5t-11.5 -0.5q-121 0 -231.5 49t-194 133 t-129.5 188t-46 209zM352 639h624q-27 81 -94.5 145t-166.5 64q-18 0 -27 -1q-91 0 -161 -30.5t-113.5 -77t-61.5 -100.5zM367 1424l448 288l112 -224l-464 -256z" />
<glyph unicode="&#xea;" horiz-adv-x="1296" d="M78 497q0 31 2 46q0 126 58.5 259.5t192.5 225t341 91.5q169 0 302 -71t206.5 -209.5t73.5 -330.5q0 -52 -6 -109h-864q36 -92 121 -145t186 -53q144 0 237 102h288q-31 -103 -104 -188t-179.5 -137t-228.5 -59q-8 0 -13.5 -0.5t-11.5 -0.5q-121 0 -231.5 49t-194 133 t-129.5 188t-46 209zM224 1263l304 272h224l272 -272h-288l-96 128l-112 -128h-304zM352 639h624q-27 81 -94.5 145t-166.5 64q-18 0 -27 -1q-91 0 -161 -30.5t-113.5 -77t-61.5 -100.5z" />
<glyph unicode="&#xeb;" horiz-adv-x="1296" d="M78 497q0 31 2 46q0 126 58.5 259.5t192.5 225t341 91.5q169 0 302 -71t206.5 -209.5t73.5 -330.5q0 -52 -6 -109h-864q36 -92 121 -145t186 -53q144 0 237 102h288q-31 -103 -104 -188t-179.5 -137t-228.5 -59q-8 0 -13.5 -0.5t-11.5 -0.5q-121 0 -231.5 49t-194 133 t-129.5 188t-46 209zM289 1248v272h272v-272h-272zM352 639h624q-27 81 -94.5 145t-166.5 64q-18 0 -27 -1q-91 0 -161 -30.5t-113.5 -77t-61.5 -100.5zM705 1248v272h272v-272h-272z" />
<glyph unicode="&#xec;" horiz-adv-x="481" d="M-49 1503l128 208l448 -288l-112 -192zM112 0v1152h272v-1152h-272z" />
<glyph unicode="&#xed;" horiz-adv-x="479" d="M-32 1424l448 288l112 -224l-464 -256zM112 0v1152h272v-1152h-272z" />
<glyph unicode="&#xee;" horiz-adv-x="479" d="M-159 1263l304 272h224l272 -272h-288l-96 128l-112 -128h-304zM112 0v1152h272v-1152h-272z" />
<glyph unicode="&#xef;" horiz-adv-x="480" d="M-112 1248v272h272v-272h-272zM112 0v1152h272v-1152h-272zM304 1248v272h272v-272h-272z" />
<glyph unicode="&#xf0;" horiz-adv-x="1296" />
<glyph unicode="&#xf1;" horiz-adv-x="1216" d="M112 0v1120h240v-96q44 62 128 96t185 34q114 0 218.5 -46t170.5 -140t66 -232v-736h-272v672q0 67 -35.5 118t-93 77.5t-117.5 26.5q-91 0 -154.5 -56.5t-63.5 -165.5v-672h-272zM287 1439q19 29 73.5 55.5t122.5 26.5q73 0 140 -34q47 -24 91 -24q55 0 149 56l96 -176 q-91 -91 -213 -91q-65 0 -139 27q-35 14 -74 14q-31 0 -60.5 -7t-89.5 -23z" />
<glyph unicode="&#xf2;" horiz-adv-x="1296" d="M118 575q0 203 153 385q205 195 445 195q76 0 145 -19t128 -51t114 -80.5t96 -108.5q112 -152 112 -335q0 -105 -37 -208t-107 -193q-43 -57 -110 -97.5t-149.5 -60.5t-167.5 -20q-90 0 -178 21.5t-164 66t-127 106.5q-153 187 -153 399zM367 1520l128 208l448 -288 l-112 -192zM395 555q0 -124 84 -219q97 -116 236 -116q74 0 142.5 34.5t101.5 81.5q72 96 72 222q0 60 -18.5 114.5t-53.5 95.5q-104 116 -255 116q-137 0 -225 -100q-84 -99 -84 -229z" />
<glyph unicode="&#xf3;" horiz-adv-x="1296" d="M104 575q0 203 153 385q205 195 445 195q76 0 145 -19t128 -51t114 -80.5t96 -108.5q112 -152 112 -335q0 -105 -37 -208t-107 -193q-43 -57 -110 -97.5t-149.5 -60.5t-167.5 -20q-90 0 -178 21.5t-164 66t-127 106.5q-153 187 -153 399zM367 1440l448 288l112 -224 l-464 -256zM381 555q0 -124 84 -219q97 -116 236 -116q74 0 142.5 34.5t101.5 81.5q72 96 72 222q0 60 -18.5 114.5t-53.5 95.5q-104 116 -255 116q-137 0 -225 -100q-84 -99 -84 -229z" />
<glyph unicode="&#xf4;" horiz-adv-x="1296" d="M118 575q0 203 153 385q205 195 445 195q76 0 145 -19t128 -51t114 -80.5t96 -108.5q112 -152 112 -335q0 -105 -37 -208t-107 -193q-43 -57 -110 -97.5t-149.5 -60.5t-167.5 -20q-90 0 -178 21.5t-164 66t-127 106.5q-153 187 -153 399zM240 1263l304 272h224l272 -272 h-288l-96 128l-112 -128h-304zM395 555q0 -124 84 -219q97 -116 236 -116q74 0 142.5 34.5t101.5 81.5q72 96 72 222q0 60 -18.5 114.5t-53.5 95.5q-104 116 -255 116q-137 0 -225 -100q-84 -99 -84 -229z" />
<glyph unicode="&#xf5;" horiz-adv-x="1296" d="M104 575q0 203 153 385q205 195 445 195q76 0 145 -19t128 -51t114 -80.5t96 -108.5q112 -152 112 -335q0 -105 -37 -208t-107 -193q-43 -57 -110 -97.5t-149.5 -60.5t-167.5 -20q-90 0 -178 21.5t-164 66t-127 106.5q-153 187 -153 399zM215 1440l448 288l112 -224 l-464 -256zM381 555q0 -124 84 -219q97 -116 236 -116q74 0 142.5 34.5t101.5 81.5q72 96 72 222q0 60 -18.5 114.5t-53.5 95.5q-104 116 -255 116q-137 0 -225 -100q-84 -99 -84 -229zM743 1440l448 288l112 -224l-464 -256z" />
<glyph unicode="&#xf6;" horiz-adv-x="1296" d="M104 575q0 203 153 385q205 195 445 195q76 0 145 -19t128 -51t114 -80.5t96 -108.5q112 -152 112 -335q0 -105 -37 -208t-107 -193q-43 -57 -110 -97.5t-149.5 -60.5t-167.5 -20q-90 0 -178 21.5t-164 66t-127 106.5q-153 187 -153 399zM289 1264v272h272v-272h-272z M381 555q0 -124 84 -219q97 -116 236 -116q74 0 142.5 34.5t101.5 81.5q72 96 72 222q0 60 -18.5 114.5t-53.5 95.5q-104 116 -255 116q-137 0 -225 -100q-84 -99 -84 -229zM705 1264v272h272v-272h-272z" />
<glyph unicode="&#xf7;" horiz-adv-x="1217" />
<glyph unicode="&#xf8;" horiz-adv-x="1344" d="M58 571q0 115 45.5 223.5t126 192t191 132t233.5 48.5q119 0 242 -47l80 112l192 -128l-80 -128q184 -197 184 -429q0 -155 -82 -290t-221.5 -215.5t-303.5 -80.5q-110 0 -217 39l-80 -112l-208 144l80 112q-182 189 -182 427zM333 554q0 -103 51 -186l368 528 q-31 4 -66 4q-114 0 -194 -49.5t-119.5 -129.5t-39.5 -167zM592 224q37 -5 63 -5q96 0 175 43.5t124 116t45 156.5q0 105 -71 201z" />
<glyph unicode="&#xf9;" horiz-adv-x="1216" d="M112 512v624h272v-624q0 -134 70.5 -214t163.5 -80q57 0 105.5 32.5t78.5 99.5t30 162v624h288v-1136h-240v112q-74 -81 -159.5 -122t-172.5 -41q-86 0 -164.5 38.5t-140.5 113t-96.5 179.5t-34.5 232zM320 1536l128 208l448 -288l-112 -192z" />
<glyph unicode="&#xfa;" horiz-adv-x="1216" d="M112 512v624h272v-624q0 -134 70.5 -214t163.5 -80q57 0 105.5 32.5t78.5 99.5t30 162v624h288v-1136h-240v112q-74 -81 -159.5 -122t-172.5 -41q-86 0 -164.5 38.5t-140.5 113t-96.5 179.5t-34.5 232zM320 1457l448 288l112 -224l-464 -256z" />
<glyph unicode="&#xfb;" horiz-adv-x="1217" d="M112 512v624h272v-624q0 -134 70.5 -214t163.5 -80q57 0 105.5 32.5t78.5 99.5t30 162v624h288v-1136h-240v112q-74 -81 -159.5 -122t-172.5 -41q-86 0 -164.5 38.5t-140.5 113t-96.5 179.5t-34.5 232zM144 1457l448 288l112 -224l-464 -256zM680 1457l448 288l112 -224 l-464 -256z" />
<glyph unicode="&#xfc;" horiz-adv-x="1216" d="M128 512v624h272v-624q0 -134 70.5 -214t163.5 -80q57 0 105.5 32.5t78.5 99.5t30 162v624h288v-1136h-240v112q-74 -81 -159.5 -122t-172.5 -41q-86 0 -164.5 38.5t-140.5 113t-96.5 179.5t-34.5 232zM240 1264v272h272v-272h-272zM656 1264v272h272v-272h-272z" />
<glyph unicode="&#xfd;" horiz-adv-x="1184" />
<glyph unicode="&#xfe;" horiz-adv-x="1343" />
<glyph unicode="&#xff;" horiz-adv-x="1184" d="M0 1152h320l272 -752l256 752h320l-656 -1536h-304l224 480zM207 1248v272h272v-272h-272zM623 1248v272h272v-272h-272z" />
<glyph unicode="&#x152;" horiz-adv-x="2160" d="M64 720q6 216 83 372.5t195 249.5t255.5 135.5t266.5 42.5q101 0 194 -24t172 -66.5t146 -101.5v192h704v-272h-432v-336h432v-288h-432v-336h432v-288h-704v144q-107 -80 -241.5 -128t-302.5 -48q-198 0 -346.5 79t-239.5 197t-136.5 247.5t-45.5 228.5zM352 720 q7 -163 82.5 -271.5t183.5 -158.5t214 -50q99 0 192 42.5t166 117.5t113.5 166t40.5 186q0 122 -57.5 233.5t-167 183.5t-255.5 79q-92 0 -178.5 -26t-159.5 -85.5t-120.5 -164t-53.5 -252.5z" />
<glyph unicode="&#x153;" horiz-adv-x="2192" d="M75 543q0 114 38 224.5t113.5 198t184.5 137.5t248 50q30 0 45 -1q34 -2 107.5 -18t161.5 -69t131 -153q86 122 204 183.5t245 61.5q112 0 216.5 -44.5t186.5 -128.5t130 -204t48 -264q0 -49 -6 -100h-880q19 -64 65 -109t108.5 -67.5t130.5 -22.5q69 0 128 22t96 65h320 q-116 -184 -263 -271t-299 -87q-135 0 -251.5 63.5t-178.5 166.5q-24 -48 -92 -101.5t-158.5 -88t-181.5 -34.5q-144 0 -257.5 48.5t-189.5 133.5t-113 190t-37 219zM319 561q0 -87 40 -164.5t118 -125.5t180 -48q20 0 31 1q95 4 163 50.5t101.5 120.5t33.5 156 q0 87 -37 167.5t-107.5 129t-169.5 48.5q-116 -7 -195.5 -55t-118.5 -122.5t-39 -157.5zM1248 672h576q-18 74 -57 121t-93 69t-113 22q-69 0 -137 -27.5t-115.5 -76.5t-60.5 -108z" />
<glyph unicode="&#x2c6;" horiz-adv-x="1104" d="M144 1296l304 272h224l272 -272h-288l-96 128l-112 -128h-304z" />
<glyph unicode="&#x2dc;" horiz-adv-x="976" d="M144 1472q19 29 73.5 55.5t122.5 26.5q73 0 140 -34q47 -24 91 -24q55 0 149 56l96 -176q-91 -91 -213 -91q-65 0 -139 27q-35 14 -74 14q-31 0 -60.5 -7t-89.5 -23z" />
<glyph unicode="&#x2000;" horiz-adv-x="1112" />
<glyph unicode="&#x2001;" horiz-adv-x="2224" />
<glyph unicode="&#x2002;" horiz-adv-x="1112" />
<glyph unicode="&#x2003;" horiz-adv-x="2224" />
<glyph unicode="&#x2004;" horiz-adv-x="741" />
<glyph unicode="&#x2005;" horiz-adv-x="556" />
<glyph unicode="&#x2006;" horiz-adv-x="370" />
<glyph unicode="&#x2007;" horiz-adv-x="370" />
<glyph unicode="&#x2008;" horiz-adv-x="278" />
<glyph unicode="&#x2009;" horiz-adv-x="444" />
<glyph unicode="&#x200a;" horiz-adv-x="123" />
<glyph unicode="&#x2010;" horiz-adv-x="848" d="M144 544v240h560v-240h-560z" />
<glyph unicode="&#x2011;" horiz-adv-x="848" d="M144 544v240h560v-240h-560z" />
<glyph unicode="&#x2012;" horiz-adv-x="848" d="M144 544v240h560v-240h-560z" />
<glyph unicode="&#x2013;" horiz-adv-x="1024" d="M16 512v256h992v-256h-992z" />
<glyph unicode="&#x2014;" horiz-adv-x="2032" d="M160 512v240h1696v-240h-1696z" />
<glyph unicode="&#x2018;" horiz-adv-x="576" d="M144 976v336q0 99 79.5 162.5t176.5 77.5v-160q-61 -9 -79 -31t-18 -64q0 -11 1 -21v-28h112v-272h-272z" />
<glyph unicode="&#x201c;" horiz-adv-x="975" d="M144 992v336q0 99 79.5 162.5t176.5 77.5v-160q-61 -9 -79 -31t-18 -64q0 -11 1 -21v-28h112v-272h-272zM576 992v336q0 99 79.5 162.5t176.5 77.5v-160q-61 -9 -79 -31t-18 -64q0 -11 1 -21v-28h112v-272h-272z" />
<glyph unicode="&#x201d;" horiz-adv-x="975" d="M144 928v144q49 12 71.5 21t39.5 40.5t17 98.5h-128v272h272q-2 -36 -2 -57q1 -36 2 -79q1 -44 1 -72q0 -158 -54.5 -255.5t-218.5 -112.5zM559 928v144q49 12 71.5 21t39.5 40.5t17 98.5h-128v272h272q-2 -36 -2 -57q1 -36 2 -79q1 -44 1 -72q0 -158 -54.5 -255.5 t-218.5 -112.5z" />
<glyph unicode="&#x201e;" horiz-adv-x="976" d="M144 0v288h272q0 -41 4 -122t4 -119q0 -97 -21.5 -165.5t-83.5 -114t-175 -55.5v144q23 6 49 12.5t41.5 15t27.5 29.5t12 56q0 9 -2 31h-128zM560 0v288h272q0 -41 4 -122t4 -119q0 -97 -21.5 -165.5t-83.5 -114t-175 -55.5v144q23 6 49 12.5t41.5 15t27.5 29.5t12 56 q0 9 -2 31h-128z" />
<glyph unicode="&#x2022;" horiz-adv-x="1216" d="M128 512v272h288v-272h-288z" />
<glyph unicode="&#x2026;" horiz-adv-x="2032" d="M207 0v272h288v-272h-288zM865 0v272h288v-272h-288zM1553 0v272h288v-272h-288z" />
<glyph unicode="&#x202f;" horiz-adv-x="444" />
<glyph unicode="&#x2039;" horiz-adv-x="480" d="M64 528v224l272 240v-256l-128 -96l128 -112v-256z" />
<glyph unicode="&#x203a;" horiz-adv-x="480" d="M160 288v256l128 96l-128 112v256l272 -240v-224z" />
<glyph unicode="&#x205f;" horiz-adv-x="556" />
<glyph unicode="&#x2122;" horiz-adv-x="2032" d="M128 1344v160h688v-160h-256v-672h-192v672h-240zM928 672v832h272l192 -464l176 464h288v-832h-160v640l-256 -640h-96l-256 640v-640h-160z" />
<glyph unicode="&#xe000;" horiz-adv-x="1135" d="M0 0v1135h1135v-1135h-1135z" />
</font>
</defs>
</svg>
