<?xml version="1.0" standalone="no"?>
<!DOCTYPE svg PUBLIC "-//W3C//DTD SVG 1.1//EN" "http://www.w3.org/Graphics/SVG/1.1/DTD/svg11.dtd" >
<svg xmlns="http://www.w3.org/2000/svg">
<metadata></metadata>
<defs>
<font id="avantgardebook" horiz-adv-x="1134" >
<font-face units-per-em="2048" ascent="1638" descent="-410" />
<missing-glyph horiz-adv-x="567" />
<glyph horiz-adv-x="2048" />
<glyph horiz-adv-x="2048" />
<glyph unicode="&#xd;" horiz-adv-x="567" />
<glyph unicode=" "  horiz-adv-x="567" />
<glyph unicode="&#x09;" horiz-adv-x="567" />
<glyph unicode="&#xa0;" horiz-adv-x="567" />
<glyph unicode="!" horiz-adv-x="604" d="M227 0v258h152v-258h-152zM227 395v1121h152v-1121h-152z" />
<glyph unicode="&#x22;" horiz-adv-x="632" d="M74 1516h166l-25 -607h-117zM393 1516h166l-24 -607h-117z" />
<glyph unicode="#" d="M68 422v137h219l53 395h-219v140h239l60 422h141l-59 -422h254l59 422h141l-59 -422h170v-138h-190l-56 -397h189v-137h-207l-60 -422h-141l60 422h-254l-60 -422h-141l59 422h-198zM428 559h252l55 397h-252z" />
<glyph unicode="$" d="M143 438v29h152q0 -156 100 -227q74 -55 180 -56q123 0 195 74t72 199q0 139 -107 215q-59 41 -180 71q-145 37 -223 91q-141 100 -146 284q-2 143 83 244.5t225 126.5v172h151v-166q182 -25 270 -164q59 -94 64 -217h-152q4 102 -61 172q-72 76 -195 76q-102 0 -165 -59 q-70 -66 -68 -185q2 -113 88 -172q51 -37 178 -69q389 -102 389 -420q0 -143 -88 -256q-98 -125 -260 -142v-202h-151v202q-150 16 -252 134q-98 111 -99 245z" />
<glyph unicode="%" horiz-adv-x="1587" d="M43 1171q0 152 109.5 259.5t261.5 107.5t261 -107.5t109 -259.5t-109.5 -259t-260.5 -107q-152 0 -261.5 107t-109.5 259zM166 1171q0 -104 71.5 -177.5t176.5 -73.5q104 0 176 73.5t72 177.5t-72 178t-176 74t-176 -74t-72 -178zM283 0l868 1516h139l-868 -1516h-139z M801 340q0 152 109.5 259.5t260.5 107.5q152 0 261.5 -107.5t109.5 -259.5t-109.5 -259.5t-261.5 -107.5t-261 107.5t-109 259.5zM924 340q0 -104 71.5 -178t175.5 -74t176 74t72 178t-71.5 178t-176.5 74q-104 0 -175.5 -74t-71.5 -178z" />
<glyph unicode="&#x26;" horiz-adv-x="1550" d="M115 438q0 291 350 451q-80 80 -113 131q-57 88 -57 186q0 141 108.5 238.5t255.5 97.5q143 0 253 -102.5t110 -251.5q0 -139 -119 -242q-76 -68 -176 -102l287 -283l221 426h170l-281 -534l383 -373l-108 -105l-346 338q-180 -338 -461 -338q-209 0 -346 146 q-131 137 -131 317zM266 430q0 -133 101 -225q94 -86 213 -86q133 0 235 108q55 62 123 195l-365 358q-78 -27 -149 -78q-158 -115 -158 -272zM446 1208q2 -109 172 -258q106 41 154 76q98 72 98 176q0 78 -60 138.5t-153 58.5q-92 -2 -151.5 -59.5t-59.5 -131.5z" />
<glyph unicode="'" horiz-adv-x="405" d="M121 1516h166l-25 -607h-117z" />
<glyph unicode="(" horiz-adv-x="755" d="M96 565q0 354 209 647q186 262 422 338v-153q-242 -145 -373 -408q-106 -215 -106 -424q0 -201 96 -407q127 -274 383 -430v-148q-236 76 -422 338q-209 293 -209 647z" />
<glyph unicode=")" horiz-adv-x="755" d="M29 -272q256 156 385 430q94 207 94 407q0 209 -107 424q-130 263 -372 408v153q236 -76 422 -338q209 -293 208 -647q0 -354 -208 -647q-186 -262 -422 -338v148z" />
<glyph unicode="*" horiz-adv-x="870" d="M119 1243l37 115l223 -78l-2 236h119l-4 -238l223 76l37 -113l-226 -70l140 -188l-97 -70l-137 193l-135 -191l-96 70l141 189z" />
<glyph unicode="+" horiz-adv-x="1241" d="M104 449v139h447v448h139v-448h447v-139h-447v-449h-139v449h-447z" />
<glyph unicode="," horiz-adv-x="567" d="M29 -137l180 395h151l-180 -395h-151z" />
<glyph unicode="-" horiz-adv-x="679" d="M61 508v137h557v-137h-557z" />
<glyph unicode="." horiz-adv-x="567" d="M209 0v258h151v-258h-151z" />
<glyph unicode="/" horiz-adv-x="894" d="M90 -205l574 1721h161l-579 -1721h-156z" />
<glyph unicode="0" d="M59 553v442q0 164 58 279q66 131 198 205q119 63 252 63t252 -63q133 -74 199 -205q57 -115 57 -279v-442q0 -211 -74.5 -342t-214.5 -193q-102 -45 -219 -45q-195 0 -325.5 108.5t-165.5 297.5q-16 80 -17 174zM211 575q0 -213 57 -303q102 -162 299 -161q197 0 299 161 q58 90 58 303v386q0 188 -66 288q-49 74 -135 117q-78 39 -156 39t-155 -39q-86 -43 -136 -117q-66 -100 -65 -288v-386z" />
<glyph unicode="1" d="M276 1378v138h412v-1516h-151v1378h-261z" />
<glyph unicode="2" d="M82 0v137l532 512q160 154 209 221q78 106 78 213q0 123 -92 222.5t-236 99.5q-94 0 -174 -49q-152 -94 -153 -330h-152q-2 270 170 408q133 109 318 108q215 0 352 -156q119 -137 119 -305q0 -127 -70 -239q-59 -96 -209 -240l-487 -465h757v-137h-962z" />
<glyph unicode="3" d="M70 475h151q10 -133 53 -203q98 -162 285 -161q137 0 231.5 94t94.5 254q0 111 -73 204t-185 119q-49 12 -176 15v133h22q20 -2 29 -2q158 0 231 92q51 61 51 145q0 86 -49 154q-66 86 -186 86q-94 0 -160 -70q-67 -75 -67 -198h-152q4 186 119 299q106 106 264 106 q168 0 278 -117q104 -111 105 -272q0 -162 -156 -285q147 -76 211 -213q45 -92 45 -188q0 -217 -145 -358q-137 -135 -332 -136q-162 0 -293 95q-186 133 -196 407z" />
<glyph unicode="4" d="M29 276v138l735 1102h180v-1102h137v-138h-137v-276h-151v276h-764zM203 414h590v893h-5z" />
<glyph unicode="5" d="M53 477h152q18 -168 122.5 -267t243.5 -99q156 0 263 120q100 115 100 271q0 168 -105.5 281.5t-255.5 113.5q-180 0 -315 -172l-119 43l137 748h682v-138h-561l-75 -417q133 72 258 71q213 0 359 -154.5t146 -375.5q0 -213 -143 -367q-150 -162 -371 -162 q-154 0 -282 86q-199 129 -236 418z" />
<glyph unicode="6" d="M49 512q0 117 55 236q35 72 127 208l377 557h172l-350 -514l4 -2q70 33 141 33q219 0 364.5 -153.5t145.5 -372.5q0 -211 -135 -363q-147 -168 -383 -168q-233 0 -379 160q-139 152 -139 379zM201 498q0 -143 90 -256q104 -131 276 -131q160 0 263.5 112.5t103.5 278.5 q0 162 -104.5 276.5t-262.5 114.5q-150 0 -258 -110.5t-108 -284.5z" />
<glyph unicode="7" d="M129 1378v138h877v-138l-621 -1378h-160l625 1378h-721z" />
<glyph unicode="8" d="M84 440q0 121 63 232q72 123 197 174q-178 117 -178 303q0 174 125 287q115 106 276 106q168 0 285 -114.5t117 -284.5q0 -59 -29 -129q-47 -113 -152 -168q139 -66 209 -193q53 -100 54 -213q0 -186 -136 -323q-141 -143 -346 -144q-207 0 -348 144q-137 137 -137 323z M236 446q0 -166 116 -260q96 -76 219 -75q121 0 220 84q109 96 108 245q0 152 -113 246q-98 82 -221 82q-135 0 -232 -97.5t-97 -224.5zM317 1155q0 -88 66 -162q74 -84 186 -84q104 0 176 74t72 172q0 96 -65 170q-72 80 -181 80q-111 0 -182.5 -74t-71.5 -176z" />
<glyph unicode="9" d="M49 1010q0 211 135 364q147 166 383 166q233 0 379 -160q139 -152 139 -379q0 -117 -55 -235q-35 -72 -127 -209l-377 -557h-172l351 514l-5 2q-63 -33 -141 -33q-219 0 -364.5 154t-145.5 373zM201 1012q0 -162 104.5 -276.5t261.5 -114.5q150 0 258.5 110.5 t108.5 284.5q0 143 -90 256q-104 131 -277 131q-160 0 -263 -112.5t-103 -278.5z" />
<glyph unicode=":" horiz-adv-x="567" d="M209 0v258h151v-258h-151zM209 864v258h151v-258h-151z" />
<glyph unicode=";" horiz-adv-x="567" d="M29 -137l180 395h151l-180 -395h-151zM209 864v258h151v-258h-151z" />
<glyph unicode="&#x3c;" horiz-adv-x="1241" d="M94 455v127l1041 471v-140l-871 -395l871 -395v-139z" />
<glyph unicode="=" horiz-adv-x="1241" d="M104 242v139h1033v-139h-1033zM104 655v140h1033v-140h-1033z" />
<glyph unicode="&#x3e;" horiz-adv-x="1241" d="M106 -16v139l871 395l-871 395v140l1041 -471v-127z" />
<glyph unicode="?" horiz-adv-x="1210" d="M131 1040v39q0 184 139.5 322.5t341.5 138.5q203 0 334 -132t131 -323q0 -113 -57 -198q-37 -57 -160 -176q-72 -70 -104 -121q-59 -90 -66 -195h-151q-4 215 215 416q90 84 123 127q49 72 49 154q0 117 -88 208q-94 96 -232 97q-172 0 -276 -150q-47 -68 -47 -207h-152z M539 0v258h151v-258h-151z" />
<glyph unicode="@" horiz-adv-x="1775" d="M133 758q6 346 232 563q219 215 559 221q313 6 517 -178t204 -496q0 -223 -111 -386t-260 -163q-55 0 -98 31q-59 43 -66 133h-4q-98 -164 -283 -164q-137 0 -228 101.5t-91 267.5q0 184 108 320q117 143 291 143q197 0 254 -182h4l29 153h123l-86 -485q-8 -45 -19 -109 q-6 -94 70 -94q98 0 171 127t73 305q0 268 -179 420q-164 141 -417 141q-291 0 -480.5 -190t-189.5 -481q0 -264 150 -445q184 -223 542 -223q258 0 488 102l30 -104q-240 -113 -518 -113q-412 0 -633 254q-188 217 -182 531zM627 692q0 -125 61.5 -191.5t157.5 -66.5 q125 0 201 117q69 106 69 256q0 104 -58.5 166.5t-144.5 62.5q-123 0 -204.5 -100t-81.5 -244z" />
<glyph unicode="A" horiz-adv-x="1515" d="M25 0l647 1516h170l651 -1516h-166l-219 510h-705l-221 -510h-157zM461 647h588l-291 696z" />
<glyph unicode="B" horiz-adv-x="1175" d="M152 0v1516h380q303 0 426 -179q70 -100 70 -225q0 -172 -166 -305q115 -47 183.5 -145.5t68.5 -227.5q0 -111 -46 -205t-128 -145q-88 -55 -184 -72q-70 -12 -224 -12h-380zM303 137h213q190 0 287 39q72 29 116 100.5t44 157.5t-50.5 155.5t-128.5 100.5 q-88 35 -295 35h-186v-588zM303 862h191q176 0 260 43q53 27 88 86.5t35 126.5q0 92 -64 166q-80 94 -307 94h-203v-516z" />
<glyph unicode="C" horiz-adv-x="1665" d="M88 756q0 334 231.5 559t559.5 225q260 0 471 -154q164 -121 223 -260h-170q-109 162 -291 232q-119 45 -235 45q-262 0 -449.5 -195.5t-187.5 -453.5q0 -262 194.5 -452.5t444.5 -190.5h2q314 0 528 286h170q-115 -209 -317 -323q-182 -100 -381 -101q-324 0 -555 224 q-238 227 -238 559z" />
<glyph unicode="D" horiz-adv-x="1523" d="M152 0v1516h442q295 0 493 -125q180 -115 273 -314q72 -158 72 -323q0 -150 -64 -297q-90 -209 -282.5 -333t-491.5 -124h-442zM303 137h219q164 0 248 15q162 25 272 108q238 178 238 500q0 152 -68.5 285t-189.5 217q-167 116 -494 116h-6h-219v-1241z" />
<glyph unicode="E" horiz-adv-x="1097" d="M143 0v1516h830v-138h-678v-544h655v-138h-655v-559h678v-137h-830z" />
<glyph unicode="F" horiz-adv-x="993" d="M143 0v1516h766v-138h-614v-549h592v-137h-592v-692h-152z" />
<glyph unicode="G" horiz-adv-x="1785" d="M82 758q0 309 223 540q238 244 588 244q270 0 487 -158q172 -125 230 -272h-176q-70 121 -207 203q-154 90 -332 90q-281 0 -475 -199q-186 -190 -187 -450q0 -260 189 -449q194 -196 476 -196h3q227 0 408 145q162 131 204 303h-845v137h1028q-25 -324 -275 -530 q-229 -193 -526 -193q-336 0 -574.5 233.5t-238.5 551.5z" />
<glyph unicode="H" horiz-adv-x="1398" d="M156 0v1516h151v-668h785v668h151v-1516h-151v711h-785v-711h-151z" />
<glyph unicode="I" horiz-adv-x="462" d="M156 0v1516h151v-1516h-151z" />
<glyph unicode="J" horiz-adv-x="987" d="M12 360h150q8 -117 88 -186q74 -63 176 -63q162 0 215 135q31 74 31 235v1035h151v-1035q0 -184 -39 -288q-104 -219 -360 -220q-156 0 -270 93q-131 106 -142 294z" />
<glyph unicode="K" horiz-adv-x="1210" d="M166 0v1516h151v-871h5l694 871h194l-600 -740l600 -776h-190l-506 657l-197 -241v-416h-151z" />
<glyph unicode="L" horiz-adv-x="946" d="M168 0v1516h151v-1379h627v-137h-778z" />
<glyph unicode="M" horiz-adv-x="1882" d="M156 0v1516h233l551 -1291l553 1291h233v-1516h-151v1350h-4l-567 -1350h-130l-563 1350h-4v-1350h-151z" />
<glyph unicode="N" horiz-adv-x="1515" d="M154 0v1516h204l846 -1258h4v1258h152v-1516h-152l-899 1333h-4v-1333h-151z" />
<glyph unicode="O" horiz-adv-x="1779" d="M88 750q0 344 250 575q233 217 551 217q326 0 564.5 -227.5t238.5 -556.5q0 -330 -240 -557.5t-563 -227.5q-324 0 -562.5 230t-238.5 547zM240 750q0 -260 192.5 -449.5t456.5 -189.5t457.5 188t193.5 457q0 266 -191.5 457.5t-459.5 191.5q-262 0 -453 -186 q-196 -193 -196 -469z" />
<glyph unicode="P" horiz-adv-x="1212" d="M154 0v1516h421q258 0 392 -89q188 -125 188 -364q0 -240 -188 -365q-131 -88 -392 -88h-270v-610h-151zM305 748h219q137 0 181 4q63 8 122 34q176 82 177 277q0 195 -177 276q-59 27 -122 35q-43 4 -181 4h-219v-630z" />
<glyph unicode="Q" horiz-adv-x="1783" d="M82 752q0 315 217 544q233 246 600 246q348 0 581.5 -229.5t233.5 -567.5q0 -317 -250 -552q97 -82 226 -82v-138q-127 0 -209 39q-51 25 -129 92q-199 -131 -455 -131q-340 0 -577.5 228.5t-237.5 550.5zM233 743q0 -84 27 -172q166 51 320 52q252 0 458 -107 q129 -66 316 -225q209 203 209 459q0 279 -196 467t-466 188q-264 0 -459 -178q-209 -190 -209 -484zM322 442q55 -106 170 -196q176 -135 409 -135q197 0 334 98q-156 121 -207 153q-201 123 -471 123q-129 0 -235 -43z" />
<glyph unicode="R" horiz-adv-x="1243" d="M143 0v1516h385q250 0 375 -58.5t196.5 -174.5t71.5 -257q0 -176 -114 -305q-127 -143 -336 -156l428 -565h-191l-514 686q248 0 326 23q119 35 186 129q63 86 64 192q0 90 -46 172t-120 119q-113 57 -295 57h-264v-1378h-152z" />
<glyph unicode="S" horiz-adv-x="1019" d="M45 424h152q6 -143 91 -228t224 -85q123 0 214 85t91 216q0 152 -131 237q-63 43 -207 86q-178 53 -248 103q-145 102 -145 297q0 176 123 291.5t303 115.5q182 0 301 -121t119 -291h-152q0 115 -79.5 195t-188.5 80q-125 0 -199.5 -80t-74.5 -184q0 -125 106 -191 q66 -43 254 -94q236 -66 326 -242q45 -90 45 -196q0 -180 -127 -309q-133 -135 -330 -136q-176 0 -305 101q-158 123 -162 350z" />
<glyph unicode="T" horiz-adv-x="872" d="M12 1378v138h846v-138h-346v-1378h-152v1378h-348z" />
<glyph unicode="U" horiz-adv-x="1341" d="M154 571v945h151v-945q0 -180 51 -274q100 -186 314 -186q213 0 313 186q51 94 51 274v945h152v-945q0 -190 -58 -315q-72 -154 -215 -227q-113 -55 -243 -56q-131 0 -244 56q-143 74 -215 227q-57 125 -57 315z" />
<glyph unicode="V" horiz-adv-x="1437" d="M16 1516h168l535 -1328l536 1328h164l-628 -1516h-150z" />
<glyph unicode="W" horiz-adv-x="1966" d="M23 1516h155l371 -1321h4l360 1321h142l362 -1319h4l371 1319h154l-435 -1516h-192l-334 1243h-4l-332 -1243h-194z" />
<glyph unicode="X" horiz-adv-x="1247" d="M16 0l514 774l-485 742h178l404 -607l399 607h176l-487 -742l518 -774h-180l-426 647l-432 -647h-179z" />
<glyph unicode="Y" horiz-adv-x="1212" d="M2 1516h168l432 -850l445 850h165l-532 -1010v-506h-152v506z" />
<glyph unicode="Z" horiz-adv-x="983" d="M25 0v137l745 1241h-723v138h893v-138l-743 -1241h766v-137h-938z" />
<glyph unicode="[" horiz-adv-x="718" d="M272 199v774q0 270 174 432q111 104 244 137v-153q-266 -115 -266 -416v-748q0 -147 39 -231q59 -131 227 -207v-154q-162 45 -270 160q-147 156 -148 406z" />
<glyph unicode="\" horiz-adv-x="1239" d="M242 1516h161l574 -1721h-156z" />
<glyph unicode="]" horiz-adv-x="718" d="M29 -213q168 76 227 207q39 84 39 231v748q0 301 -266 416v153q133 -33 243 -137q174 -162 174 -432v-774q0 -250 -147 -406q-108 -115 -270 -160v154z" />
<glyph unicode="^" horiz-adv-x="1241" d="M109 629l446 887h131l447 -887h-144l-371 737l-364 -737h-145z" />
<glyph unicode="_" horiz-adv-x="1024" d="M0 -154h1024v-102h-1024v102z" />
<glyph unicode="`" horiz-adv-x="774" d="M141 1487l66 123l407 -224l-67 -118z" />
<glyph unicode="a" horiz-adv-x="1398" d="M86 563q0 236 164 406q174 180 438 180q293 0 436 -225h4v196h144v-1120h-144v197h-4q-150 -223 -436 -224q-260 0 -431 172t-171 418zM229 557q0 -190 128 -322.5t331 -132.5q184 0 316.5 131.5t132.5 325.5q0 188 -129 324.5t-320 136.5q-190 0 -321 -125 q-138 -131 -138 -338z" />
<glyph unicode="b" horiz-adv-x="1396" d="M139 0v1516h144v-592h4q158 225 436 225q264 0 438 -180q164 -170 164 -406q0 -246 -168 -416q-174 -174 -434 -174q-283 0 -436 224h-4v-197h-144zM274 559q0 -195 132.5 -326t316.5 -131q203 0 331 132.5t128 322.5q0 207 -138 338q-131 125 -321 125t-319.5 -136 t-129.5 -325z" />
<glyph unicode="c" horiz-adv-x="1325" d="M84 559q0 244 176 417t426 173q168 0 311 -82q170 -98 246 -285h-158q-63 119 -178 183q-100 55 -217 55q-178 0 -313 -119q-150 -131 -150 -338q0 -193 132.5 -327t330.5 -134q276 1 395 228h158q-184 -356 -557 -357q-258 0 -432 177q-170 170 -170 409z" />
<glyph unicode="d" horiz-adv-x="1402" d="M80 563q0 236 164 406q174 180 438 180q285 0 436 -221h4v588h144v-1516h-144v197h-4q-80 -121 -217 -179q-106 -45 -219 -45q-260 0 -431 172t-171 418zM223 557q0 -190 128 -322.5t331 -132.5q184 0 316 131.5t132 325.5q0 188 -129 324.5t-319 136.5t-322 -125 q-137 -131 -137 -338z" />
<glyph unicode="e" horiz-adv-x="1331" d="M78 559q0 240 170 414t411 176h7q166 0 305 -90q117 -78 188 -197q87 -146 87 -318q0 -18 -1 -36h-1020q7 -164 139 -286q129 -120 290 -120h5q147 2 259 80q102 74 143 185h151q-59 -172 -206 -281q-154 -113 -344 -113q-238 0 -411 170t-173 416zM225 637h875 q-31 184 -170 291q-119 92 -268 92q-147 0 -269 -92q-139 -107 -168 -291z" />
<glyph unicode="f" horiz-adv-x="643" d="M39 991v129h174q4 180 61 269q98 152 369 153v-133q-190 0 -252 -104q-35 -57 -35 -185h287v-129h-287v-991h-143v991h-174z" />
<glyph unicode="g" horiz-adv-x="1378" d="M76 555q0 258 182 430q172 164 404 164q283 0 432 -229h4v200h143v-944q0 -270 -102 -409q-90 -125 -258 -177q-95 -30 -181 -30h-6q-168 0 -307 73q-199 106 -266 338h151q113 -282 418 -282h2q164 0 275 92q131 113 131 325v99h-4q-59 -113 -187 -176 q-113 -55 -245 -56q-231 0 -404 160q-182 168 -182 422zM219 559q0 -186 127 -321.5t316 -135.5q205 0 333 158q111 135 111 299q0 186 -129 323.5t-315 137.5t-314.5 -136.5t-128.5 -324.5z" />
<glyph unicode="h" horiz-adv-x="1249" d="M127 0v1516h143v-539h4q109 172 344 172q215 0 354.5 -137.5t139.5 -395.5v-616h-143v616q0 270 -189 365q-78 39 -162 39q-145 0 -243 -96q-104 -100 -105 -308v-616h-143z" />
<glyph unicode="i" horiz-adv-x="409" d="M133 0v1120h143v-1120h-143zM133 1257v259h143v-259h-143z" />
<glyph unicode="j" horiz-adv-x="415" d="M-90 -252q131 4 184 94q43 76 43 236v1042h144v-1042q0 -135 -15 -201q-27 -109 -108 -180q-96 -86 -248 -90v141zM137 1257v259h144v-259h-144z" />
<glyph unicode="k" horiz-adv-x="1028" d="M143 0v1516h144v-1080h4l522 684h184l-442 -565l465 -555h-184l-369 442l-180 -229v-213h-144z" />
<glyph unicode="l" horiz-adv-x="409" d="M133 0v1516h143v-1516h-143z" />
<glyph unicode="m" horiz-adv-x="1921" d="M135 0v1120h144v-129l-5 4v-4h5q45 78 137 121q80 37 168 37q96 0 192 -43q129 -57 185 -172q55 115 184 172q96 43 192 43q166 0 289 -98q160 -129 160 -385v-666h-144v649q0 145 -51 234q-80 137 -254 137t-254 -137q-51 -88 -51 -234v-649h-143v649q0 145 -51 234 q-80 137 -254 137t-254 -137q-51 -88 -51 -234v-649h-144z" />
<glyph unicode="n" horiz-adv-x="1249" d="M133 0v1120h143v-143h5q109 172 344 172q215 0 354 -137.5t139 -395.5v-616h-143v616q0 270 -189 365q-78 39 -161 39q-145 0 -244 -96q-104 -100 -105 -308v-616h-143z" />
<glyph unicode="o" horiz-adv-x="1341" d="M86 553q0 256 182 430q170 166 402 166q244 0 415.5 -176t171.5 -412q0 -233 -167 -407q-174 -180 -420 -181q-242 0 -413 174.5t-171 405.5zM229 555q0 -190 136 -324q129 -129 307 -129q174 0 303 123q139 133 139 342q0 205 -149 338q-131 115 -293 115 q-168 0 -297 -121q-146 -135 -146 -344z" />
<glyph unicode="p" horiz-adv-x="1396" d="M131 -393v1513h143v-196h5q158 225 436 225q264 0 438 -180q164 -170 164 -406q0 -246 -168 -416q-174 -174 -434 -174q-283 0 -436 224h-5v-590h-143zM266 559q0 -195 132 -326t317 -131q203 0 331 132.5t128 322.5q0 207 -138 338q-131 125 -321 125t-319.5 -136 t-129.5 -325z" />
<glyph unicode="q" horiz-adv-x="1396" d="M76 563q0 236 164 406q174 180 438 180q291 0 436 -225h4v196h144v-1513h-144v590h-4q-145 -223 -436 -224q-260 0 -431 172t-171 418zM219 557q0 -190 128 -322.5t331 -132.5q184 0 316 131.5t132 325.5q0 188 -129 324.5t-319 136.5t-322 -125q-137 -131 -137 -338z " />
<glyph unicode="r" horiz-adv-x="616" d="M133 0v1120h143v-162h5q45 106 137 152q66 31 178 39v-152q-162 -12 -241 -108t-79 -234v-655h-143z" />
<glyph unicode="s" horiz-adv-x="794" d="M49 332h144q4 -229 200 -230q100 0 154.5 54.5t54.5 146.5q0 100 -80 158q-35 25 -143 65q-137 51 -191 92q-106 82 -106 220q0 127 82 215q90 96 237 96q127 0 217 -87q89 -85 89 -212v-6h-144q-6 92 -63 139q-45 37 -105 37q-80 0 -125 -52.5t-45 -115.5 q0 -121 201 -186q139 -45 209 -103q110 -89 110 -241q0 -155 -86 -248q-94 -100 -266 -101q-135 0 -233 84q-111 98 -111 263v12z" />
<glyph unicode="t" horiz-adv-x="694" d="M29 991v129h235v396h144v-396h268v-129h-268v-991h-144v991h-235z" />
<glyph unicode="u" horiz-adv-x="1245" d="M127 502v618h143v-616q0 -201 80 -295q90 -106 260 -107q147 0 238 91q117 117 117 335v592h143v-1120h-135v174h-4q-98 -201 -359 -201q-250 0 -385 168q-98 121 -98 361z" />
<glyph unicode="v" d="M14 1120h154l395 -942l402 942h153l-473 -1120h-158z" />
<glyph unicode="w" horiz-adv-x="1701" d="M27 1120h149l352 -938h4l256 803h125l258 -803h5l356 938h147l-428 -1120h-161l-238 745h-4l-234 -745h-161z" />
<glyph unicode="x" horiz-adv-x="983" d="M25 0l383 569l-383 551h172l295 -432l292 432h174l-383 -551l383 -569h-170l-296 449l-297 -449h-170z" />
<glyph unicode="y" horiz-adv-x="1097" d="M31 1120h151l357 -893l381 893h151l-649 -1513h-150l195 430z" />
<glyph unicode="z" horiz-adv-x="870" d="M20 0v125l621 866h-600v129h772v-129l-614 -862h651v-129h-830z" />
<glyph unicode="{" horiz-adv-x="718" d="M143 498v131q74 4 128.5 72.5t54.5 172.5v373q0 125 62.5 197t154.5 72h135v-123h-103q-98 0 -98 -176v-375q0 -125 -71 -205q-49 -55 -107 -70v-6q57 -8 107 -61q72 -78 71 -213v-375q0 -176 98 -176h103v-123h-135q-92 0 -154.5 71.5t-62.5 196.5v373q0 106 -56 176 q-53 63 -127 68z" />
<glyph unicode="|" horiz-adv-x="1376" d="M612 -205v1721h152v-1721h-152z" />
<glyph unicode="}" horiz-adv-x="718" d="M41 -264h102q98 0 99 176v375q0 135 71 213q49 53 107 61v6q-57 14 -107 70q-72 80 -71 205v375q0 176 -99 176h-102v123h135q92 0 154.5 -72t62.5 -197v-373q0 -104 54.5 -172.5t127.5 -72.5v-131q-74 -4 -126 -68q-55 -70 -56 -176v-373q0 -125 -62.5 -196.5 t-154.5 -71.5h-135v123z" />
<glyph unicode="~" horiz-adv-x="1241" d="M147 469q92 176 256 176q78 0 228 -65q55 -27 114.5 -54.5t94.5 -27.5q53 0 102 51q27 26 78 104l74 -102q-61 -86 -103 -121q-70 -55 -153 -55q-86 0 -209 67q-143 80 -236 80q-100 0 -172 -155z" />
<glyph unicode="&#xa1;" horiz-adv-x="604" d="M225 -393v1120h152v-1120h-152zM225 864v258h152v-258h-152z" />
<glyph unicode="&#xa2;" d="M98 784q0 176 115 307.5t291 157.5v199h151v-197q135 -16 238.5 -98t150.5 -205h-165q-96 172 -295 172q-145 0 -244 -108q-90 -100 -90 -228q0 -127 90 -227q98 -109 244 -108q188 0 278 147h170q-47 -113 -147.5 -187.5t-229.5 -91.5v-190h-151v192q-176 27 -291 158 t-115 307z" />
<glyph unicode="&#xa3;" d="M8 715v129h121q-45 104 -45 200q0 207 131 349q137 150 350 149q182 0 320 -115q143 -123 166 -319h-148q-23 133 -110 217q-94 88 -228 88q-141 0 -235 -102.5t-94 -266.5q0 -111 59 -200h584v-129h-461v-4q166 -145 168 -338q0 -86 -62 -244h88q131 0 222 49 q143 78 145 264q0 27 -18 107h151q18 -59 18 -115q0 -150 -86 -262q-133 -172 -426 -172h-559v129h303q74 115 72 244q-2 104 -72 192q-68 76 -137 150h-217z" />
<glyph unicode="&#xa4;" d="M16 172l201 201q-88 109 -88 264q0 156 88 264l-201 197l90 90l197 -201q109 88 264 88q162 0 264 -88l201 201l86 -90l-196 -197q88 -109 88 -264q0 -156 -88 -264l196 -201l-86 -86l-201 197q-109 -88 -264 -88q-156 0 -264 88l-197 -197zM252 637q0 -131 92 -227.5 t223 -96.5q133 0 226.5 96.5t93.5 227.5q0 129 -93.5 224t-226.5 95q-131 0 -223 -96t-92 -223z" />
<glyph unicode="&#xa5;" d="M8 1516h164l397 -666l394 666h163l-370 -621h311v-129h-389l-35 -53v-119h424v-131h-424v-463h-151v465h-424v129h424v119l-35 53h-389v129h311z" />
<glyph unicode="&#xa6;" horiz-adv-x="1376" d="M612 -205v688h152v-688h-152zM612 827v689h152v-689h-152z" />
<glyph unicode="&#xa7;" horiz-adv-x="1259" d="M174 711q0 156 182 295q-82 82 -82 206q0 139 103.5 234.5t261.5 95.5q156 0 252 -80t96 -221h-151q0 72 -52.5 118t-144.5 46q-98 0 -155.5 -55.5t-57.5 -143.5q0 -115 117 -172l301 -149q111 -55 160 -105q80 -82 79 -205q0 -61 -39 -135q-45 -88 -126 -141 q106 -90 106 -244q0 -135 -104 -237q-111 -106 -281 -107q-182 0 -296 119t-120 301h152q8 -141 86 -215q68 -68 178 -68q106 0 169.5 63.5t63.5 143.5q0 70 -30 113q-41 53 -154 113l-317 163q-197 102 -197 267zM326 719q0 -102 106 -156l385 -192q115 68 115 202 q0 114 -127 177l-359 178q-121 -70 -120 -209z" />
<glyph unicode="&#xa8;" horiz-adv-x="755" d="M150 1309v258h151v-258h-151zM453 1309v258h151v-258h-151z" />
<glyph unicode="&#xa9;" horiz-adv-x="1529" d="M-18 758q0 322 228 552t556 230q324 0 552 -230.5t228 -551.5q0 -324 -229.5 -553.5t-550.5 -229.5q-328 0 -556 229.5t-228 553.5zM94 758q0 -279 194.5 -478.5t475.5 -199.5q276 0 473 197.5t197 480.5q0 279 -194.5 478.5t-475.5 199.5q-283 0 -476.5 -200 t-193.5 -478zM336 760q0 203 121 335t319 132q160 0 273 -94q106 -91 120 -218h-112q-47 207 -281 207q-150 0 -238.5 -96t-88.5 -266t89 -266.5t238 -96.5q233 0 281 207h112q-14 -127 -120 -217q-113 -94 -273 -94q-199 0 -319.5 132t-120.5 335z" />
<glyph unicode="&#xaa;" horiz-adv-x="755" d="M-6 1190q0 139 100 242q104 111 262 110q174 0 246 -123h4v107h123v-676h-123v106h-4q-74 -123 -246 -122q-150 0 -256 106.5t-106 249.5zM117 1186q0 -96 71.5 -167t173.5 -71q104 0 177 67.5t73 174.5q0 100 -72.5 168.5t-177.5 68.5q-98 0 -169 -65q-76 -72 -76 -176z " />
<glyph unicode="&#xab;" horiz-adv-x="870" d="M82 578l231 407l121 -63l-192 -344l192 -345l-121 -67zM438 578l232 407l121 -63l-195 -344l195 -345l-121 -67z" />
<glyph unicode="&#xac;" horiz-adv-x="1241" d="M104 655v140h1033v-572h-140v432h-893z" />
<glyph unicode="&#xad;" horiz-adv-x="679" d="M61 508v137h557v-137h-557z" />
<glyph unicode="&#xae;" horiz-adv-x="1529" d="M-18 758q0 322 228 552t556 230q324 0 552 -230.5t228 -551.5q0 -324 -229.5 -553.5t-550.5 -229.5q-328 0 -556 229.5t-228 553.5zM94 758q0 -279 194.5 -478.5t475.5 -199.5q276 0 473 197.5t197 480.5q0 279 -194.5 478.5t-475.5 199.5q-283 0 -476.5 -200 t-193.5 -478zM430 303v895h377q315 0 315 -244q0 -178 -166 -217v-4q86 -25 119 -82q27 -45 31 -141q8 -170 29 -207h-113q-25 41 -27 166q-2 119 -39 160q-47 53 -190 53h-223v-379h-113zM543 784h225q242 0 242 164q0 145 -222 146h-245v-310z" />
<glyph unicode="&#xaf;" horiz-adv-x="993" d="M150 1370v137h692v-137h-692z" />
<glyph unicode="&#xb0;" horiz-adv-x="819" d="M115 1157q0 123 86 209t209 86t209 -86t86 -209t-86.5 -209t-208.5 -86q-123 0 -209 86t-86 209zM217 1157q0 -76 53.5 -134t139.5 -58t139 58t53 134t-53 134.5t-139 58.5t-139.5 -58.5t-53.5 -134.5z" />
<glyph unicode="&#xb1;" horiz-adv-x="1241" d="M104 -49v139h1033v-139h-1033zM104 557v139h447v365h139v-365h447v-139h-447v-364h-139v364h-447z" />
<glyph unicode="&#xb2;" horiz-adv-x="679" d="M39 606v101l323 301q96 90 125 127q41 55 41 112q0 66 -50 119t-128 53q-180 0 -180 -219h-123q-4 193 125 277q80 53 182 53q133 0 219 -94q78 -82 78 -187q0 -90 -53 -168q-33 -47 -115 -123l-264 -241h430v-111h-610z" />
<glyph unicode="&#xb3;" horiz-adv-x="679" d="M37 911h123q4 -53 8 -65q6 -33 25 -55q59 -88 155 -89q82 0 131 51.5t49 135.5q0 55 -38.5 104t-104.5 64q-27 6 -117 8v111h49q145 0 152 118q-6 121 -127 125q-121 -10 -121 -153h-123q2 137 86 207q68 57 162 57q106 0 176 -72t70 -168q0 -92 -84 -164 q143 -88 143 -235q0 -131 -90 -215t-213 -84q-96 0 -176 49q-131 82 -135 270z" />
<glyph unicode="&#xb4;" horiz-adv-x="768" d="M160 1386l407 224l66 -123l-406 -219z" />
<glyph unicode="&#xb6;" horiz-adv-x="1155" d="M45 1110q0 227 180 340q104 66 318 66h585v-115h-131v-1626h-127v1626h-245v-1626h-127v938h-35q-182 0 -300 110.5t-118 286.5z" />
<glyph unicode="&#xb7;" horiz-adv-x="567" d="M209 389v258h151v-258h-151z" />
<glyph unicode="&#xb8;" horiz-adv-x="663" d="M164 -309l86 10q18 -80 94 -80q92 0 92 105q0 98 -92 98q-57 0 -92 -45l-76 37l82 184h86l-49 -119q35 14 65 15q68 0 113 -47.5t47 -118.5q2 -80 -50 -132.5t-126 -52.5q-143 0 -180 146z" />
<glyph unicode="&#xb9;" horiz-adv-x="679" d="M129 1405v111h277v-910h-123v799h-154z" />
<glyph unicode="&#xba;" horiz-adv-x="755" d="M25 1182q0 158 108 262q104 98 244 98q147 0 249.5 -105.5t102.5 -246.5q0 -143 -101.5 -249.5t-250.5 -106.5q-147 0 -249.5 103.5t-102.5 244.5zM147 1186q0 -104 68 -171t164 -67q92 0 159.5 65.5t67.5 176.5t-76 178q-68 59 -151 59q-90 0 -158 -61q-74 -69 -74 -180 z" />
<glyph unicode="&#xbb;" horiz-adv-x="870" d="M80 233l192 345l-192 344l119 63l233 -407l-233 -412zM436 233l193 345l-193 344l119 63l233 -407l-233 -412z" />
<glyph unicode="&#xbc;" horiz-adv-x="1701" d="M205 1405v111h276v-910h-123v799h-153zM375 0l682 1516h123l-682 -1516h-123zM827 160v100l449 649h133v-639h84v-110h-84v-160h-121v160h-461zM979 270h309v455h-4z" />
<glyph unicode="&#xbd;" horiz-adv-x="1701" d="M166 1405v111h276v-910h-123v799h-153zM336 0l682 1516h123l-682 -1516h-123zM924 0v100l323 301q96 90 125 127q41 55 41 113q0 66 -50 119t-128 53q-180 0 -180 -219h-123q-4 193 125 276q80 53 182 54q133 0 219 -95q78 -82 78 -186q0 -90 -53 -168q-33 -47 -115 -123 l-264 -241h430v-111h-610z" />
<glyph unicode="&#xbe;" horiz-adv-x="1701" d="M94 911h123q4 -53 8 -65q6 -33 25 -55q59 -88 156 -89q82 0 131 51.5t49 135.5q0 55 -39 104t-105 64q-27 6 -116 8v111h49q145 0 151 118q-6 121 -127 125q-120 -10 -120 -153h-123q2 137 86 207q68 57 161 57q106 0 176 -72t70 -168q0 -92 -84 -164q143 -88 144 -235 q0 -131 -90.5 -215t-212.5 -84q-96 0 -177 49q-131 82 -135 270zM518 0l682 1516h123l-682 -1516h-123zM940 160v100l449 649h133v-639h84v-110h-84v-160h-121v160h-461zM1092 270h309v455h-4z" />
<glyph unicode="&#xbf;" horiz-adv-x="1210" d="M133 35q0 113 57 198q37 57 160 177q72 70 105 120q59 90 65 197h152q4 -213 -215 -416q-92 -86 -123 -127q-49 -72 -49 -153q0 -119 88 -209q92 -98 231 -98q170 0 277 149q47 68 47 207h151v-39q0 -184 -137 -320q-141 -141 -344 -141t-336 135q-129 129 -129 320z M520 864v258h152v-258h-152z" />
<glyph unicode="&#xc0;" horiz-adv-x="1515" d="M25 0l647 1516h170l651 -1516h-166l-219 510h-705l-221 -510h-157zM461 647h588l-291 696zM512 1821l66 123l407 -224l-67 -118z" />
<glyph unicode="&#xc1;" horiz-adv-x="1515" d="M25 0l647 1516h170l651 -1516h-166l-219 510h-705l-221 -510h-157zM461 647h588l-291 696zM535 1720l407 224l66 -123l-406 -219z" />
<glyph unicode="&#xc2;" horiz-adv-x="1515" d="M25 0l647 1516h170l651 -1516h-166l-219 510h-705l-221 -510h-157zM396 1643l297 256h135l293 -256h-183l-176 149l-180 -149h-186zM461 647h588l-291 696z" />
<glyph unicode="&#xc3;" horiz-adv-x="1515" d="M25 0l647 1516h170l651 -1516h-166l-219 510h-705l-221 -510h-157zM405 1792q92 86 213 86q66 0 164 -45q86 -39 127 -39t129 53l74 -100q-106 -80 -201 -80q-68 0 -162 42t-135 42q-72 0 -137 -61zM461 647h588l-291 696z" />
<glyph unicode="&#xc4;" horiz-adv-x="1515" d="M25 0l647 1516h170l651 -1516h-166l-219 510h-705l-221 -510h-157zM461 647h588l-291 696zM531 1643v258h151v-258h-151zM834 1643v258h151v-258h-151z" />
<glyph unicode="&#xc5;" horiz-adv-x="1515" d="M25 0l647 1516h170l651 -1516h-166l-219 510h-705l-221 -510h-157zM461 647h588l-291 696zM545 1743q0 88 62.5 150.5t148.5 62.5q90 0 151.5 -61.5t61.5 -151.5q0 -88 -62.5 -149.5t-150.5 -61.5q-86 0 -148.5 61.5t-62.5 149.5zM651 1743q0 -43 31 -74t74 -31 q45 0 75.5 31t30.5 74q0 45 -30.5 75.5t-75.5 30.5q-41 0 -73 -30.5t-32 -75.5z" />
<glyph unicode="&#xc6;" horiz-adv-x="2031" d="M-41 0l1055 1516h844v-138h-650v-544h627v-138h-627v-559h650v-137h-801v512h-559l-357 -512h-182zM594 649h463v672h-4z" />
<glyph unicode="&#xc7;" horiz-adv-x="1665" d="M88 756q0 334 231.5 559t559.5 225q260 0 471 -154q164 -121 223 -260h-170q-109 162 -291 232q-119 45 -235 45q-262 0 -449.5 -195.5t-187.5 -453.5q0 -262 194.5 -452.5t444.5 -190.5q315 0 530 286h170q-115 -209 -317 -323q-182 -100 -381 -101q-20 0 -29 2l-39 -94 q35 14 66 15q68 0 112.5 -47.5t46.5 -118.5q2 -80 -50 -132.5t-126 -52.5q-143 1 -180 146l86 10q18 -80 94 -80q92 0 92 105q0 98 -92 98q-57 0 -92 -45l-76 37l74 168q-287 39 -481 252q-199 221 -199 520z" />
<glyph unicode="&#xc8;" horiz-adv-x="1097" d="M143 0v1516h830v-138h-678v-544h655v-138h-655v-559h678v-137h-830zM303 1821l66 123l407 -224l-67 -118z" />
<glyph unicode="&#xc9;" horiz-adv-x="1097" d="M143 0v1516h830v-138h-678v-544h655v-138h-655v-559h678v-137h-830zM326 1720l407 224l66 -123l-406 -219z" />
<glyph unicode="&#xca;" horiz-adv-x="1097" d="M143 0v1516h830v-138h-678v-544h655v-138h-655v-559h678v-137h-830zM187 1643l297 256h135l293 -256h-183l-176 149l-180 -149h-186z" />
<glyph unicode="&#xcb;" horiz-adv-x="1097" d="M143 0v1516h830v-138h-678v-544h655v-138h-655v-559h678v-137h-830zM322 1643v258h151v-258h-151zM625 1643v258h151v-258h-151z" />
<glyph unicode="&#xcc;" horiz-adv-x="462" d="M-97 1821l66 123l407 -224l-67 -118zM156 0v1516h151v-1516h-151z" />
<glyph unicode="&#xcd;" horiz-adv-x="462" d="M90 1720l407 224l66 -123l-406 -219zM156 0v1516h151v-1516h-151z" />
<glyph unicode="&#xce;" horiz-adv-x="462" d="M-131 1643l297 256h135l293 -256h-183l-176 149l-180 -149h-186zM156 0v1516h151v-1516h-151z" />
<glyph unicode="&#xcf;" horiz-adv-x="462" d="M5 1643v258h151v-258h-151zM156 0v1516h151v-1516h-151zM308 1643v258h151v-258h-151z" />
<glyph unicode="&#xd0;" horiz-adv-x="1617" d="M82 711v137h151v668h435q453 0 678 -281q168 -209 167 -481q0 -250 -149 -453q-219 -301 -688 -301h-443v711h-151zM385 137h219q164 0 248 15q162 25 272 108q238 178 238 500q0 152 -68.5 285t-189.5 217q-168 117 -500 116h-219v-530h430v-137h-430v-574z" />
<glyph unicode="&#xd1;" horiz-adv-x="1515" d="M154 0v1516h204l846 -1258h4v1258h152v-1516h-152l-899 1333h-4v-1333h-151zM405 1792q92 86 213 86q66 0 164 -45q86 -39 127 -39t129 53l74 -100q-106 -80 -201 -80q-68 0 -162 42t-135 42q-72 0 -137 -61z" />
<glyph unicode="&#xd2;" horiz-adv-x="1779" d="M88 750q0 344 250 575q233 217 551 217q326 0 564.5 -227.5t238.5 -556.5q0 -330 -240 -557.5t-563 -227.5q-324 0 -562.5 230t-238.5 547zM240 750q0 -260 192.5 -449.5t456.5 -189.5t457.5 188t193.5 457q0 266 -191.5 457.5t-459.5 191.5q-262 0 -453 -186 q-196 -193 -196 -469zM645 1821l66 123l407 -224l-67 -118z" />
<glyph unicode="&#xd3;" horiz-adv-x="1779" d="M88 750q0 344 250 575q233 217 551 217q326 0 564.5 -227.5t238.5 -556.5q0 -330 -240 -557.5t-563 -227.5q-324 0 -562.5 230t-238.5 547zM240 750q0 -260 192.5 -449.5t456.5 -189.5t457.5 188t193.5 457q0 266 -191.5 457.5t-459.5 191.5q-262 0 -453 -186 q-196 -193 -196 -469zM666 1720l407 224l66 -123l-406 -219z" />
<glyph unicode="&#xd4;" horiz-adv-x="1779" d="M88 750q0 344 250 575q233 217 551 217q326 0 564.5 -227.5t238.5 -556.5q0 -330 -240 -557.5t-563 -227.5q-324 0 -562.5 230t-238.5 547zM240 750q0 -260 192.5 -449.5t456.5 -189.5t457.5 188t193.5 457q0 266 -191.5 457.5t-459.5 191.5q-262 0 -453 -186 q-196 -193 -196 -469zM529 1643l297 256h135l293 -256h-183l-176 149l-180 -149h-186z" />
<glyph unicode="&#xd5;" horiz-adv-x="1779" d="M88 750q0 344 250 575q233 217 551 217q326 0 564.5 -227.5t238.5 -556.5q0 -330 -240 -557.5t-563 -227.5q-324 0 -562.5 230t-238.5 547zM240 750q0 -260 192.5 -449.5t456.5 -189.5t457.5 188t193.5 457q0 266 -191.5 457.5t-459.5 191.5q-262 0 -453 -186 q-196 -193 -196 -469zM536 1792q92 86 213 86q66 0 164 -45q86 -39 127 -39t129 53l74 -100q-106 -80 -201 -80q-68 0 -162 42t-135 42q-72 0 -137 -61z" />
<glyph unicode="&#xd6;" horiz-adv-x="1779" d="M88 750q0 344 250 575q233 217 551 217q326 0 564.5 -227.5t238.5 -556.5q0 -330 -240 -557.5t-563 -227.5q-324 0 -562.5 230t-238.5 547zM240 750q0 -260 192.5 -449.5t456.5 -189.5t457.5 188t193.5 457q0 266 -191.5 457.5t-459.5 191.5q-262 0 -453 -186 q-196 -193 -196 -469zM662 1643v258h151v-258h-151zM965 1643v258h151v-258h-151z" />
<glyph unicode="&#xd7;" horiz-adv-x="1241" d="M152 147l372 373l-370 369l98 98l371 -369l368 369l99 -98l-369 -369l371 -373l-99 -98l-370 373l-373 -373z" />
<glyph unicode="&#xd8;" horiz-adv-x="1777" d="M88 758q0 330 239.5 557t561.5 227q219 0 418 -117l188 252l113 -82l-189 -252q272 -240 273 -585q0 -330 -240 -557.5t-563 -227.5q-217 0 -412 115l-192 -258l-113 82l190 258q-274 242 -274 588zM240 756q0 -278 209 -471l772 1028q-160 92 -332 92 q-266 0 -457.5 -191.5t-191.5 -457.5zM561 201q156 -90 330 -90q262 0 455.5 188t193.5 457q0 272 -207 473z" />
<glyph unicode="&#xd9;" horiz-adv-x="1341" d="M154 571v945h151v-945q0 -180 51 -274q100 -186 314 -186q213 0 313 186q51 94 51 274v945h152v-945q0 -190 -58 -315q-72 -154 -215 -227q-113 -55 -243 -56q-131 0 -244 56q-143 74 -215 227q-57 125 -57 315zM385 1821l66 123l407 -224l-67 -118z" />
<glyph unicode="&#xda;" horiz-adv-x="1341" d="M154 571v945h151v-945q0 -180 51 -274q100 -186 314 -186q213 0 313 186q51 94 51 274v945h152v-945q0 -190 -58 -315q-72 -154 -215 -227q-113 -55 -243 -56q-131 0 -244 56q-143 74 -215 227q-57 125 -57 315zM488 1720l407 224l66 -123l-406 -219z" />
<glyph unicode="&#xdb;" horiz-adv-x="1341" d="M154 571v945h151v-945q0 -180 51 -274q100 -186 314 -186q213 0 313 186q51 94 51 274v945h152v-945q0 -190 -58 -315q-72 -154 -215 -227q-113 -55 -243 -56q-131 0 -244 56q-143 74 -215 227q-57 125 -57 315zM310 1643l297 256h135l293 -256h-183l-176 149l-180 -149 h-186z" />
<glyph unicode="&#xdc;" horiz-adv-x="1341" d="M154 571v945h151v-945q0 -180 51 -274q100 -186 314 -186q213 0 313 186q51 94 51 274v945h152v-945q0 -190 -58 -315q-72 -154 -215 -227q-113 -55 -243 -56q-131 0 -244 56q-143 74 -215 227q-57 125 -57 315zM443 1643v258h151v-258h-151zM746 1643v258h151v-258h-151 z" />
<glyph unicode="&#xdd;" horiz-adv-x="1212" d="M2 1516h168l432 -850l445 850h165l-532 -1010v-506h-152v506zM424 1720l407 224l66 -123l-406 -219z" />
<glyph unicode="&#xde;" horiz-adv-x="1212" d="M123 0v1516h151v-306h271q258 0 391 -88q188 -125 188 -364q0 -240 -188 -365q-131 -88 -391 -88h-271v-305h-151zM274 442h220q137 0 180 4q63 8 123 35q176 82 176 277t-176 276q-59 27 -123 35q-43 4 -180 4h-220v-631z" />
<glyph unicode="&#xdf;" d="M125 0v985q0 258 72 369q53 82 150 135t202 53q180 0 297 -115q123 -121 123 -313q0 -217 -181 -315q287 -98 287 -389q0 -211 -139 -332q-121 -104 -287 -105q-131 0 -232.5 66.5t-144.5 183.5h-4v-223h-143zM268 416h105q2 -137 83 -225.5t191 -88.5q109 0 193 74 q92 84 92 219q0 139 -95.5 222t-308.5 83h-69v138q141 -2 235 51q131 72 131 239q0 125 -78.5 205t-197.5 80q-156 0 -230 -135q-51 -94 -51 -293v-569z" />
<glyph unicode="&#xe0;" horiz-adv-x="1398" d="M86 563q0 236 164 406q174 180 438 180q293 0 436 -225h4v196h144v-1120h-144v197h-4q-150 -223 -436 -224q-260 0 -431 172t-171 418zM229 557q0 -190 128 -322.5t331 -132.5q184 0 316.5 131.5t132.5 325.5q0 188 -129 324.5t-320 136.5q-190 0 -321 -125 q-138 -131 -138 -338zM454 1487l66 123l407 -224l-67 -118z" />
<glyph unicode="&#xe1;" horiz-adv-x="1398" d="M86 563q0 236 164 406q174 180 438 180q293 0 436 -225h4v196h144v-1120h-144v197h-4q-150 -223 -436 -224q-260 0 -431 172t-171 418zM229 557q0 -190 128 -322.5t331 -132.5q184 0 316.5 131.5t132.5 325.5q0 188 -129 324.5t-320 136.5q-190 0 -321 -125 q-138 -131 -138 -338zM475 1386l407 224l66 -123l-406 -219z" />
<glyph unicode="&#xe2;" horiz-adv-x="1398" d="M86 563q0 236 164 406q174 180 438 180q293 0 436 -225h4v196h144v-1120h-144v197h-4q-150 -223 -436 -224q-260 0 -431 172t-171 418zM229 557q0 -190 128 -322.5t331 -132.5q184 0 316.5 131.5t132.5 325.5q0 188 -129 324.5t-320 136.5q-190 0 -321 -125 q-138 -131 -138 -338zM338 1309l297 256h135l293 -256h-183l-176 149l-180 -149h-186z" />
<glyph unicode="&#xe3;" horiz-adv-x="1398" d="M86 563q0 236 164 406q174 180 438 180q293 0 436 -225h4v196h144v-1120h-144v197h-4q-150 -223 -436 -224q-260 0 -431 172t-171 418zM229 557q0 -190 128 -322.5t331 -132.5q184 0 316.5 131.5t132.5 325.5q0 188 -129 324.5t-320 136.5q-190 0 -321 -125 q-138 -131 -138 -338zM346 1458q92 86 213 86q66 0 164 -45q86 -39 127 -39t129 53l74 -100q-106 -80 -201 -80q-68 0 -162 42t-135 42q-72 0 -137 -61z" />
<glyph unicode="&#xe4;" horiz-adv-x="1398" d="M86 563q0 236 164 406q174 180 438 180q293 0 436 -225h4v196h144v-1120h-144v197h-4q-150 -223 -436 -224q-260 0 -431 172t-171 418zM229 557q0 -190 128 -322.5t331 -132.5q184 0 316.5 131.5t132.5 325.5q0 188 -129 324.5t-320 136.5q-190 0 -321 -125 q-138 -131 -138 -338zM472 1309v258h151v-258h-151zM775 1309v258h151v-258h-151z" />
<glyph unicode="&#xe5;" horiz-adv-x="1398" d="M86 563q0 236 164 406q174 180 438 180q293 0 436 -225h4v196h144v-1120h-144v197h-4q-150 -223 -436 -224q-260 0 -431 172t-171 418zM229 557q0 -190 128 -322.5t331 -132.5q184 0 316.5 131.5t132.5 325.5q0 188 -129 324.5t-320 136.5q-190 0 -321 -125 q-138 -131 -138 -338zM487 1440q0 88 62.5 150.5t148.5 62.5q90 0 151.5 -61.5t61.5 -151.5q0 -88 -62.5 -149.5t-150.5 -61.5q-86 0 -148.5 61.5t-62.5 149.5zM593 1440q0 -43 31 -74t74 -31q45 0 75.5 31t30.5 74q0 45 -30.5 75.5t-75.5 30.5q-41 0 -73 -30.5t-32 -75.5z " />
<glyph unicode="&#xe6;" horiz-adv-x="2369" d="M70 557q0 217 151 391q172 201 449 201q311 0 442 -236h4v207h144v-207h4q57 106 182 171t254 65q168 0 307 -92q117 -76 188 -195q94 -157 84 -356h-1013q16 -188 159 -303q125 -100 277 -101q135 0 246.5 75t150.5 188h144q-51 -172 -206 -282t-335 -110 q-129 0 -246 60q-125 61 -192 170h-4v-203h-144v203h-4q-152 -229 -444 -230q-274 0 -447 197q-152 170 -151 387zM213 553q0 -182 132 -316.5t323 -134.5q186 0 317 123q137 131 137 332q0 190 -123 324q-129 139 -329 139q-197 0 -327 -140.5t-130 -326.5zM1266 635h870 q-31 186 -166 293q-119 92 -268 92q-147 0 -268 -92q-137 -107 -168 -293z" />
<glyph unicode="&#xe7;" horiz-adv-x="1325" d="M84 559q0 244 176 417t426 173q168 0 311 -82q170 -98 246 -285h-158q-63 119 -178 183q-100 55 -217 55q-178 0 -313 -119q-150 -131 -150 -338q0 -193 132.5 -327t330.5 -134q276 0 395 228h158q-170 -356 -569 -357l-39 -92q35 14 65 15q68 0 113 -47.5t47 -118.5 q2 -80 -50 -132.5t-126 -52.5q-143 1 -180 146l86 10q18 -80 94 -80q92 0 92 105q0 98 -92 98q-57 0 -92 -45l-76 37l74 166q-221 33 -363.5 197.5t-142.5 379.5z" />
<glyph unicode="&#xe8;" horiz-adv-x="1331" d="M78 559q0 240 170 414t411 176q170 2 312 -90q117 -78 188 -197q96 -161 86 -354h-1020q8 -164 139.5 -286t294.5 -120q147 2 259 80q102 74 143 185h151q-59 -172 -206 -281q-154 -113 -344 -113q-238 0 -411 170t-173 416zM225 637h875q-31 184 -170 291 q-119 92 -268 92q-147 0 -269 -92q-139 -107 -168 -291zM420 1487l66 123l407 -224l-67 -118z" />
<glyph unicode="&#xe9;" horiz-adv-x="1331" d="M78 559q0 240 170 414t411 176q170 2 312 -90q117 -78 188 -197q96 -161 86 -354h-1020q8 -164 139.5 -286t294.5 -120q147 2 259 80q102 74 143 185h151q-59 -172 -206 -281q-154 -113 -344 -113q-238 0 -411 170t-173 416zM225 637h875q-31 184 -170 291 q-119 92 -268 92q-147 0 -269 -92q-139 -107 -168 -291zM443 1386l407 224l66 -123l-406 -219z" />
<glyph unicode="&#xea;" horiz-adv-x="1331" d="M78 559q0 240 170 414t411 176q170 2 312 -90q117 -78 188 -197q96 -161 86 -354h-1020q8 -164 139.5 -286t294.5 -120q147 2 259 80q102 74 143 185h151q-59 -172 -206 -281q-154 -113 -344 -113q-238 0 -411 170t-173 416zM225 637h875q-31 184 -170 291 q-119 92 -268 92q-147 0 -269 -92q-139 -107 -168 -291zM304 1309l297 256h135l293 -256h-183l-176 149l-180 -149h-186z" />
<glyph unicode="&#xeb;" horiz-adv-x="1331" d="M78 559q0 240 170 414t411 176q170 2 312 -90q117 -78 188 -197q96 -161 86 -354h-1020q8 -164 139.5 -286t294.5 -120q147 2 259 80q102 74 143 185h151q-59 -172 -206 -281q-154 -113 -344 -113q-238 0 -411 170t-173 416zM225 637h875q-31 184 -170 291 q-119 92 -268 92q-147 0 -269 -92q-139 -107 -168 -291zM439 1309v258h151v-258h-151zM742 1309v258h151v-258h-151z" />
<glyph unicode="&#xec;" horiz-adv-x="409" d="M-123 1487l66 123l407 -224l-67 -118zM133 0v1120h143v-1120h-143z" />
<glyph unicode="&#xed;" horiz-adv-x="409" d="M64 1386l407 224l66 -123l-406 -219zM133 0v1120h143v-1120h-143z" />
<glyph unicode="&#xee;" horiz-adv-x="409" d="M-157 1309l297 256h135l293 -256h-183l-176 149l-180 -149h-186zM133 0v1120h143v-1120h-143z" />
<glyph unicode="&#xef;" horiz-adv-x="409" d="M-22 1309v258h151v-258h-151zM133 0v1120h143v-1120h-143zM281 1309v258h151v-258h-151z" />
<glyph unicode="&#xf0;" horiz-adv-x="1341" d="M86 565q0 242 174 412t399 166q172 -4 299 -94l5 4q-98 133 -299 254l-318 -125l-102 80l297 112q-125 66 -240 101l160 67q109 -33 244 -104l272 104l98 -76l-256 -100q438 -313 438 -780q0 -266 -172 -438.5t-415 -172.5q-256 0 -424 183q-160 172 -160 407zM229 557 q0 -201 138 -330q129 -123 301 -123q170 0 301 119q145 133 145 348q0 211 -151 336q-129 106 -299 107q-158 0 -281 -103q-154 -127 -154 -354z" />
<glyph unicode="&#xf1;" horiz-adv-x="1249" d="M133 0v1120h143v-143h5q109 172 344 172q215 0 354 -137.5t139 -395.5v-616h-143v616q0 270 -189 365q-78 39 -161 39q-145 0 -244 -96q-104 -100 -105 -308v-616h-143zM272 1458q92 86 213 86q66 0 164 -45q86 -39 127 -39t129 53l74 -100q-106 -80 -201 -80 q-68 0 -162 42t-135 42q-72 0 -137 -61z" />
<glyph unicode="&#xf2;" horiz-adv-x="1341" d="M86 553q0 256 182 430q170 166 402 166q244 0 415.5 -176t171.5 -412q0 -233 -167 -407q-174 -180 -420 -181q-242 0 -413 174.5t-171 405.5zM229 555q0 -190 136 -324q129 -129 307 -129q174 0 303 123q139 133 139 342q0 205 -149 338q-131 115 -293 115 q-168 0 -297 -121q-146 -135 -146 -344zM426 1487l66 123l407 -224l-67 -118z" />
<glyph unicode="&#xf3;" horiz-adv-x="1341" d="M86 553q0 256 182 430q170 166 402 166q244 0 415.5 -176t171.5 -412q0 -233 -167 -407q-174 -180 -420 -181q-242 0 -413 174.5t-171 405.5zM229 555q0 -190 136 -324q129 -129 307 -129q174 0 303 123q139 133 139 342q0 205 -149 338q-131 115 -293 115 q-168 0 -297 -121q-146 -135 -146 -344zM447 1386l407 224l66 -123l-406 -219z" />
<glyph unicode="&#xf4;" horiz-adv-x="1341" d="M86 553q0 256 182 430q170 166 402 166q244 0 415.5 -176t171.5 -412q0 -233 -167 -407q-174 -180 -420 -181q-242 0 -413 174.5t-171 405.5zM229 555q0 -190 136 -324q129 -129 307 -129q174 0 303 123q139 133 139 342q0 205 -149 338q-131 115 -293 115 q-168 0 -297 -121q-146 -135 -146 -344zM310 1309l297 256h135l293 -256h-183l-176 149l-180 -149h-186z" />
<glyph unicode="&#xf5;" horiz-adv-x="1341" d="M86 553q0 256 182 430q170 166 402 166q244 0 415.5 -176t171.5 -412q0 -233 -167 -407q-174 -180 -420 -181q-242 0 -413 174.5t-171 405.5zM229 555q0 -190 136 -324q129 -129 307 -129q174 0 303 123q139 133 139 342q0 205 -149 338q-131 115 -293 115 q-168 0 -297 -121q-146 -135 -146 -344zM317 1458q92 86 213 86q66 0 164 -45q86 -39 127 -39t129 53l74 -100q-106 -80 -201 -80q-68 0 -162 42t-135 42q-72 0 -137 -61z" />
<glyph unicode="&#xf6;" horiz-adv-x="1341" d="M86 553q0 256 182 430q170 166 402 166q244 0 415.5 -176t171.5 -412q0 -233 -167 -407q-174 -180 -420 -181q-242 0 -413 174.5t-171 405.5zM229 555q0 -190 136 -324q129 -129 307 -129q174 0 303 123q139 133 139 342q0 205 -149 338q-131 115 -293 115 q-168 0 -297 -121q-146 -135 -146 -344zM443 1309v258h151v-258h-151zM746 1309v258h151v-258h-151z" />
<glyph unicode="&#xf7;" horiz-adv-x="1241" d="M104 449v139h1033v-139h-1033zM545 -27v258h151v-258h-151zM545 805v258h151v-258h-151z" />
<glyph unicode="&#xf8;" horiz-adv-x="1337" d="M84 553q0 256 182 430q170 166 402 166q162 0 295 -84l147 192l113 -83l-148 -193q180 -176 180 -420q0 -233 -168 -407q-174 -180 -419 -181q-166 0 -297 86l-146 -190l-110 78l147 194q-178 174 -178 412zM227 555q0 -178 119 -303l537 706q-100 61 -213 62 q-168 0 -297 -121q-145 -135 -146 -344zM453 166q98 -63 217 -64q174 0 303 123q139 133 139 342q0 182 -119 305z" />
<glyph unicode="&#xf9;" horiz-adv-x="1245" d="M127 502v618h143v-616q0 -201 80 -295q90 -106 260 -107q147 0 238 91q117 117 117 335v592h143v-1120h-135v174h-4q-98 -201 -359 -201q-250 0 -385 168q-98 121 -98 361zM336 1487l66 123l407 -224l-67 -118z" />
<glyph unicode="&#xfa;" horiz-adv-x="1245" d="M127 502v618h143v-616q0 -201 80 -295q90 -106 260 -107q147 0 238 91q117 117 117 335v592h143v-1120h-135v174h-4q-98 -201 -359 -201q-250 0 -385 168q-98 121 -98 361zM441 1386l407 224l66 -123l-406 -219z" />
<glyph unicode="&#xfb;" horiz-adv-x="1245" d="M127 502v618h143v-616q0 -201 80 -295q90 -106 260 -107q147 0 238 91q117 117 117 335v592h143v-1120h-135v174h-4q-98 -201 -359 -201q-250 0 -385 168q-98 121 -98 361zM261 1309l297 256h135l293 -256h-183l-176 149l-180 -149h-186z" />
<glyph unicode="&#xfc;" horiz-adv-x="1245" d="M127 502v618h143v-616q0 -201 80 -295q90 -106 260 -107q147 0 238 91q117 117 117 335v592h143v-1120h-135v174h-4q-98 -201 -359 -201q-250 0 -385 168q-98 121 -98 361zM396 1309v258h151v-258h-151zM699 1309v258h151v-258h-151z" />
<glyph unicode="&#xfd;" horiz-adv-x="1097" d="M31 1120h151l357 -893l381 893h151l-649 -1513h-150l195 430zM367 1386l407 224l66 -123l-406 -219z" />
<glyph unicode="&#xfe;" horiz-adv-x="1396" d="M131 -393v1909h143v-592h5q156 225 436 225q264 0 438 -180q164 -170 164 -406q0 -246 -168 -416q-174 -174 -434 -174q-283 0 -436 224h-5v-590h-143zM266 559q0 -195 132 -326t317 -131q203 0 331 132.5t128 322.5q0 207 -138 338q-131 125 -321 125t-319.5 -136 t-129.5 -325z" />
<glyph unicode="&#xff;" horiz-adv-x="1097" d="M31 1120h151l357 -893l381 893h151l-649 -1513h-150l195 430zM322 1309v258h151v-258h-151zM625 1309v258h151v-258h-151z" />
<glyph unicode="&#x152;" horiz-adv-x="2445" d="M92 760q0 334 238 561q231 221 555 221q195 0 375 -86q193 -92 274 -242h4v302h801v-138h-649v-547h626v-137h-626v-557h649v-137h-801v309h-4q-82 -152 -266 -246q-174 -90 -365 -90q-336 0 -569 217q-242 225 -242 570zM244 766q0 -293 202 -481q186 -174 437 -174 q262 0 454 178q203 188 203 471q0 264 -184 452q-190 193 -463 193q-274 0 -461.5 -187.5t-187.5 -451.5z" />
<glyph unicode="&#x153;" horiz-adv-x="2328" d="M70 553q0 256 182 430q170 166 401 166q164 0 305 -88q135 -84 209 -223q74 139 210 225t302 86q168 0 308 -92q117 -76 188 -195q96 -162 86 -354h-1018q10 -164 139 -286t297 -120q141 2 254 80q106 76 144 185h151q-55 -170 -208.5 -282t-338.5 -112q-164 0 -303 84 t-215 226q-74 -139 -207 -222q-139 -88 -303 -88q-242 0 -412.5 174.5t-170.5 405.5zM213 555q0 -190 135 -324q129 -129 307 -129t311.5 131.5t133.5 321.5q0 209 -146 344q-131 121 -299 121t-297 -121q-145 -135 -145 -344zM1247 637h871q-31 184 -166 291 q-119 92 -269 92q-147 0 -268 -92q-137 -107 -168 -291z" />
<glyph unicode="&#x178;" horiz-adv-x="1212" d="M2 1516h168l432 -850l445 850h165l-532 -1010v-506h-152v506zM379 1643v258h151v-258h-151zM682 1643v258h151v-258h-151z" />
<glyph unicode="&#x2c6;" horiz-adv-x="1028" d="M152 1309l297 256h135l293 -256h-183l-176 149l-180 -149h-186z" />
<glyph unicode="&#x2dc;" horiz-adv-x="899" d="M96 1458q92 86 213 86q66 0 164 -45q86 -39 127 -39t129 53l74 -100q-106 -80 -201 -80q-68 0 -162 42t-135 42q-72 0 -137 -61z" />
<glyph unicode="&#x2000;" horiz-adv-x="978" />
<glyph unicode="&#x2001;" horiz-adv-x="1956" />
<glyph unicode="&#x2002;" horiz-adv-x="978" />
<glyph unicode="&#x2003;" horiz-adv-x="1956" />
<glyph unicode="&#x2004;" horiz-adv-x="652" />
<glyph unicode="&#x2005;" horiz-adv-x="489" />
<glyph unicode="&#x2006;" horiz-adv-x="326" />
<glyph unicode="&#x2007;" horiz-adv-x="326" />
<glyph unicode="&#x2008;" horiz-adv-x="244" />
<glyph unicode="&#x2009;" horiz-adv-x="391" />
<glyph unicode="&#x200a;" horiz-adv-x="108" />
<glyph unicode="&#x2010;" horiz-adv-x="679" d="M61 508v137h557v-137h-557z" />
<glyph unicode="&#x2011;" horiz-adv-x="679" d="M61 508v137h557v-137h-557z" />
<glyph unicode="&#x2012;" horiz-adv-x="679" d="M61 508v137h557v-137h-557z" />
<glyph unicode="&#x2013;" horiz-adv-x="1024" d="M72 508v137h880v-137h-880z" />
<glyph unicode="&#x2014;" horiz-adv-x="2048" d="M72 508v137h1904v-137h-1904z" />
<glyph unicode="&#x2018;" horiz-adv-x="718" d="M195 1516h151l180 -398h-151z" />
<glyph unicode="&#x2019;" horiz-adv-x="718" d="M193 1118l180 398h151l-180 -398h-151z" />
<glyph unicode="&#x201a;" horiz-adv-x="724" d="M182 -139l180 397h152l-180 -397h-152z" />
<glyph unicode="&#x201c;" horiz-adv-x="1028" d="M199 1516h151l180 -398h-151zM502 1516h149l180 -398h-151z" />
<glyph unicode="&#x201d;" horiz-adv-x="991" d="M197 1118l180 398h149l-178 -398h-151zM498 1118l180 398h151l-180 -398h-151z" />
<glyph unicode="&#x201e;" horiz-adv-x="1028" d="M182 -139l180 397h152l-180 -397h-152zM485 -139l181 397h151l-180 -397h-152z" />
<glyph unicode="&#x2022;" horiz-adv-x="1241" d="M307 772q0 129 91.5 223.5t224.5 94.5q127 0 218 -93.5t91 -224.5t-92 -224t-219 -93q-129 0 -221.5 94t-92.5 223z" />
<glyph unicode="&#x2026;" horiz-adv-x="2048" d="M266 0v258h152v-258h-152zM948 0v258h152v-258h-152zM1630 0v258h152v-258h-152z" />
<glyph unicode="&#x202f;" horiz-adv-x="391" />
<glyph unicode="&#x2039;" horiz-adv-x="514" d="M82 578l231 407l121 -63l-192 -344l192 -345l-121 -67z" />
<glyph unicode="&#x203a;" horiz-adv-x="514" d="M80 233l192 345l-192 344l119 63l233 -407l-233 -412z" />
<glyph unicode="&#x205f;" horiz-adv-x="489" />
<glyph unicode="&#x2122;" horiz-adv-x="2048" d="M18 1419v97h543v-97h-215v-813h-113v813h-215zM678 606v910h160l336 -748l335 748h162v-910h-112v762h-5l-333 -762h-95l-331 760h-4v-760h-113z" />
<glyph unicode="&#xe000;" horiz-adv-x="1116" d="M0 0v1116h1116v-1116h-1116z" />
</font>
</defs>
</svg>
